<?xml version="1.0" encoding="UTF-8" standalone="no"?>
<!-- Created with Inkscape (http://www.inkscape.org/) -->

<svg
   xmlns:dc="http://purl.org/dc/elements/1.1/"
   xmlns:cc="http://creativecommons.org/ns#"
   xmlns:rdf="http://www.w3.org/1999/02/22-rdf-syntax-ns#"
   xmlns:svg="http://www.w3.org/2000/svg"
   xmlns="http://www.w3.org/2000/svg"
   xmlns:sodipodi="http://sodipodi.sourceforge.net/DTD/sodipodi-0.dtd"
   xmlns:inkscape="http://www.inkscape.org/namespaces/inkscape"
   width="31.979139"
   height="31.999969"
   id="svg7135"
   version="1.1"
   inkscape:version="0.48.5 r10040"
   sodipodi:docname="social-gplus.svg">
  <defs
     id="defs7137" />
  <sodipodi:namedview
     id="base"
     pagecolor="#282828"
     bordercolor="#464646"
     borderopacity="1"
     inkscape:pageopacity="1"
     inkscape:pageshadow="2"
     inkscape:zoom="1"
     inkscape:cx="33.73969"
     inkscape:cy="0.19102159"
     inkscape:document-units="px"
     inkscape:current-layer="layer1"
     showgrid="false"
     fit-margin-top="0"
     fit-margin-left="0"
     fit-margin-right="0"
     fit-margin-bottom="0"
     inkscape:window-width="1920"
     inkscape:window-height="1014"
     inkscape:window-x="0"
     inkscape:window-y="28"
     inkscape:window-maximized="1" />
  <metadata
     id="metadata7140">
    <rdf:RDF>
      <cc:Work
         rdf:about="">
        <dc:format>image/svg+xml</dc:format>
        <dc:type
           rdf:resource="http://purl.org/dc/dcmitype/StillImage" />
        <dc:title></dc:title>
      </cc:Work>
    </rdf:RDF>
  </metadata>
  <g
     inkscape:label="Layer 1"
     inkscape:groupmode="layer"
     id="layer1"
     transform="translate(-126.11607,-641.21931)">
    <path
       style="fill:#ffffff;fill-opacity:1"
       d="m 142.09522,641.21931 c -8.83443,0 -15.97915,7.16319 -15.97915,15.99999 0,8.83626 7.14472,15.99998 15.97915,15.99998 8.83432,0 15.99999,-7.16386 15.99999,-15.99998 0,-8.8368 -7.16567,-15.99999 -15.99999,-15.99999 z m -1.97916,5.22913 5.52083,0 -1.8125,1.14586 -1.72917,0 c 0.64364,0.5328 1.97917,1.65673 1.97917,3.79167 0,2.07613 -1.17839,3.05359 -2.35417,3.97913 -0.36489,0.36426 -0.79166,0.75633 -0.79166,1.37506 0,0.61607 0.42179,0.9534 0.72916,1.20827 l 1.02084,0.79173 c 1.23279,1.0386 2.35442,1.9982 2.35416,3.93746 0,2.63934 -2.55784,5.29167 -7.37499,5.29167 -4.06227,0 -6.02083,-1.92113 -6.02083,-4 0,-1.01007 0.51373,-2.45433 2.16666,-3.43753 1.73555,-1.067 4.07215,-1.205 5.33333,-1.2916 -0.39378,-0.5052 -0.83333,-1.02627 -0.83333,-1.89586 0,-0.47674 0.13222,-0.76687 0.27083,-1.10414 -0.30864,0.0287 -0.59474,0.0627 -0.875,0.0627 -2.96808,0 -4.66666,-2.227 -4.66666,-4.41666 0,-1.28987 0.58751,-2.7108 1.79167,-3.75 1.59769,-1.31926 3.77733,-1.68753 5.29166,-1.68753 z m -2.04167,1.06253 c -0.73055,0 -1.50905,0.35447 -1.95833,0.91667 -0.47664,0.59033 -0.60416,1.35133 -0.60416,2.08333 0,1.8802 1.09015,4.99999 3.49999,4.99999 0.6999,0 1.44529,-0.342 1.89584,-0.79166 0.64414,-0.64814 0.70833,-1.53573 0.70833,-2.04167 0,-2.02213 -1.21849,-5.16666 -3.54167,-5.16666 z m 10.29166,5.14586 1.375,0 0,2.81247 2.83333,0 0,1.3958 -2.83333,0 0,2.83333 -1.375,0 0,-2.83333 -2.81249,0 0,-1.3958 2.81249,0 0,-2.81247 z m -8.91666,7.37493 c -0.25238,7e-5 -1.76172,0.0627 -2.93749,0.4584 -0.61653,0.2232 -2.41667,0.8818 -2.41667,2.87493 0,1.9938 1.94078,3.43753 4.9375,3.43753 2.68959,0 4.12499,-1.3032 4.12499,-3.04166 0,-1.4356 -0.93216,-2.19187 -3.06249,-3.70833 -0.223,-0.028 -0.36583,-0.0207 -0.64584,-0.0207 z"
       id="path3171-7-3-3-8-7-3-4-9-0-8-30-0"
       inkscape:connector-curvature="0" />
  </g>
</svg>
