<?xml version="1.0" encoding="UTF-8" standalone="no"?>
<!-- Created with Inkscape (http://www.inkscape.org/) -->

<svg
   xmlns:dc="http://purl.org/dc/elements/1.1/"
   xmlns:cc="http://creativecommons.org/ns#"
   xmlns:rdf="http://www.w3.org/1999/02/22-rdf-syntax-ns#"
   xmlns:svg="http://www.w3.org/2000/svg"
   xmlns="http://www.w3.org/2000/svg"
   xmlns:sodipodi="http://sodipodi.sourceforge.net/DTD/sodipodi-0.dtd"
   xmlns:inkscape="http://www.inkscape.org/namespaces/inkscape"
   width="31.979151"
   height="31.999969"
   id="svg7135"
   version="1.1"
   inkscape:version="0.48.5 r10040"
   sodipodi:docname="social-gplus.svg">
  <defs
     id="defs7137" />
  <sodipodi:namedview
     id="base"
     pagecolor="#282828"
     bordercolor="#464646"
     borderopacity="1"
     inkscape:pageopacity="1"
     inkscape:pageshadow="2"
     inkscape:zoom="1"
     inkscape:cx="-20.23943"
     inkscape:cy="48.191022"
     inkscape:document-units="px"
     inkscape:current-layer="layer1"
     showgrid="false"
     fit-margin-top="0"
     fit-margin-left="0"
     fit-margin-right="0"
     fit-margin-bottom="0"
     inkscape:window-width="1920"
     inkscape:window-height="1014"
     inkscape:window-x="0"
     inkscape:window-y="28"
     inkscape:window-maximized="1" />
  <metadata
     id="metadata7140">
    <rdf:RDF>
      <cc:Work
         rdf:about="">
        <dc:format>image/svg+xml</dc:format>
        <dc:type
           rdf:resource="http://purl.org/dc/dcmitype/StillImage" />
        <dc:title></dc:title>
      </cc:Work>
    </rdf:RDF>
  </metadata>
  <g
     inkscape:label="Layer 1"
     inkscape:groupmode="layer"
     id="layer1"
     transform="translate(-180.09519,-689.21931)">
    <path
       style="fill:#ffffff;fill-opacity:1"
       d="m 196.09518,689.21931 c -8.83443,0 -15.99999,7.16319 -15.99999,15.99999 0,8.83626 7.16556,15.99998 15.99999,15.99998 2.55117,0 4.96616,-0.60406 7.10416,-1.66666 0.93557,1.01813 2.27935,1.66666 3.77083,1.66666 2.82701,0 5.10417,-2.29733 5.10417,-5.12499 l -0.10417,-1.04167 c -0.22496,-1.08606 -0.78991,-2.0224 -1.5625,-2.72913 1.06092,-2.14106 1.66667,-4.55166 1.66667,-7.10419 0,-8.8368 -7.14484,-15.99999 -15.97916,-15.99999 z m -1.97916,5.22913 5.52083,0 -1.83334,1.14586 -1.72916,0 c 0.64364,0.5328 1.97916,1.65673 1.97916,3.79167 0,2.07613 -1.17838,3.05373 -2.35416,3.97913 -0.3649,0.36426 -0.77083,0.75633 -0.77083,1.37506 0,0.61594 0.42179,0.95354 0.72916,1.20827 l 1,0.79173 c 1.23279,1.03847 2.35442,1.9982 2.35417,3.93746 0,2.63934 -2.55785,5.29167 -7.375,5.29167 -4.06227,0 -6.02083,-1.92113 -6.02083,-4 0,-1.01007 0.51375,-2.45433 2.16668,-3.43753 1.73553,-1.06687 4.09298,-1.20513 5.35416,-1.2916 -0.39378,-0.5052 -0.85417,-1.02627 -0.85417,-1.89586 0,-0.47674 0.15306,-0.767 0.29167,-1.10414 -0.30864,0.0287 -0.61557,0.0627 -0.89583,0.0627 -2.96809,0 -4.64583,-2.227 -4.64583,-4.41666 0,-1.28987 0.58751,-2.7108 1.79167,-3.75 1.59769,-1.31926 3.77733,-1.68753 5.29166,-1.68753 z m -2.04167,1.06253 c -0.73055,0 -1.50905,0.35447 -1.95833,0.91667 -0.47665,0.59033 -0.625,1.35133 -0.625,2.08333 0,1.8802 1.09015,4.99999 3.5,4.99999 0.69989,0 1.44528,-0.342 1.89583,-0.79166 0.64415,-0.64814 0.70833,-1.53573 0.70833,-2.04167 0,-2.02213 -1.19765,-5.16666 -3.52083,-5.16666 z m 10.27083,5.14586 1.39583,0 0,2.81247 2.8125,0 0,1.3958 -2.8125,0 0,2.83333 -1.39583,0 0,-2.83333 -2.79167,0 0,-1.3958 2.79167,0 0,-2.81247 z m -8.89583,7.37493 c -0.25239,0 -1.78255,0.0627 -2.95833,0.4584 -0.61653,0.22307 -2.39583,0.88193 -2.39583,2.87493 0,1.9938 1.91994,3.43753 4.91666,3.43753 2.6896,0 4.125,-1.3032 4.125,-3.04166 0,-1.4356 -0.93216,-2.19187 -3.0625,-3.70833 -0.22299,-0.028 -0.34499,-0.0207 -0.625,-0.0207 z m 13.52082,4.16666 c 0.0817,0 0.15081,-0.014 0.22917,0 0.54845,0.0971 1.00893,0.52274 1.125,1.08334 l 0,0.29173 c 0,0.7622 -0.59215,1.3958 -1.35417,1.3958 -0.76217,0 -1.39583,-0.6336 -1.39583,-1.3958 0,-0.76227 0.63366,-1.37507 1.39583,-1.37507 z m -2.54166,2.54174 c 0.76207,-7e-5 1.375,0.61273 1.375,1.37493 0,0.76226 -0.61293,1.37506 -1.375,1.37506 -0.76207,0 -1.375,-0.6128 -1.375,-1.37506 l 0.0208,-0.2916 c 0.13275,-0.64074 0.70001,-1.08333 1.35417,-1.08333 z m 5.0625,0 c 0.65415,0 1.22142,0.44259 1.35416,1.08333 l 0.0417,0.2916 c 0,0.76226 -0.63376,1.37506 -1.39583,1.37506 -0.76207,0 -1.375,-0.6128 -1.375,-1.37506 0,-0.7622 0.61293,-1.37493 1.375,-1.37493 z m -0.70834,3.18746 1.64584,0 c -0.576,1.09327 -1.6645,1.88666 -2.9375,2.06253 l 0,-0.77086 c 0,-0.71527 0.57648,-1.29167 1.29166,-1.29167 z m -5.27083,0.0413 1.625,0 c 0.71509,0 1.29167,0.5764 1.29167,1.29167 l 0,0.72919 c -1.2652,-0.17139 -2.33513,-0.94099 -2.91667,-2.02086 z"
       id="path3171-7-3-3-8-7-3-4-9-0-8-30-4-9"
       inkscape:connector-curvature="0" />
  </g>
</svg>
