<?xml version="1.0" encoding="UTF-8" standalone="no"?>
<!-- Created with Inkscape (http://www.inkscape.org/) -->

<svg
   xmlns:dc="http://purl.org/dc/elements/1.1/"
   xmlns:cc="http://creativecommons.org/ns#"
   xmlns:rdf="http://www.w3.org/1999/02/22-rdf-syntax-ns#"
   xmlns:svg="http://www.w3.org/2000/svg"
   xmlns="http://www.w3.org/2000/svg"
   xmlns:sodipodi="http://sodipodi.sourceforge.net/DTD/sodipodi-0.dtd"
   xmlns:inkscape="http://www.inkscape.org/namespaces/inkscape"
   width="31.999969"
   height="31.999969"
   id="svg7135"
   version="1.1"
   inkscape:version="0.48.5 r10040"
   sodipodi:docname="icon.svg">
  <defs
     id="defs7137" />
  <sodipodi:namedview
     id="base"
     pagecolor="#282828"
     bordercolor="#464646"
     borderopacity="1"
     inkscape:pageopacity="1"
     inkscape:pageshadow="2"
     inkscape:zoom="1"
     inkscape:cx="36.76059"
     inkscape:cy="-1.8089589"
     inkscape:document-units="px"
     inkscape:current-layer="layer1"
     showgrid="false"
     fit-margin-top="0"
     fit-margin-left="0"
     fit-margin-right="0"
     fit-margin-bottom="0"
     inkscape:window-width="1920"
     inkscape:window-height="1014"
     inkscape:window-x="0"
     inkscape:window-y="28"
     inkscape:window-maximized="1" />
  <metadata
     id="metadata7140">
    <rdf:RDF>
      <cc:Work
         rdf:about="">
        <dc:format>image/svg+xml</dc:format>
        <dc:type
           rdf:resource="http://purl.org/dc/dcmitype/StillImage" />
        <dc:title></dc:title>
      </cc:Work>
    </rdf:RDF>
  </metadata>
  <g
     inkscape:label="Layer 1"
     inkscape:groupmode="layer"
     id="layer1"
     transform="translate(-123.09517,-639.21933)">
    <path
       style="fill:#ffffff;fill-opacity:1"
       d="m 139.09515,639.21933 c -8.83446,0 -15.99998,7.16319 -15.99998,15.99999 0,8.83626 7.16552,15.99998 15.99998,15.99998 0.36107,0 0.72827,-0.018 1.08334,-0.0413 l 0,-12.35412 -4.16667,0 0,-4.83333 4.16667,0 0,-3.56253 c 0,-4.13313 2.54293,-6.375 6.22919,-6.375 1.76567,0 3.26613,0.12887 3.70827,0.18754 l 0,4.31246 -2.5416,0 c -2.0046,0 -2.39587,0.95593 -2.39587,2.3542 l 0,3.08333 4.7708,0 -0.62493,4.83333 -4.14587,0 0,11.18746 c 5.81846,-2.39393 9.91666,-8.1088 9.91666,-14.79166 0,-8.83679 -7.16566,-15.99999 -15.99999,-15.99999 z m 1.08334,31.95831 c 0.4454,-0.0293 0.8778,-0.0805 1.31253,-0.14587 -0.42947,0.0647 -0.872,0.11667 -1.31253,0.14587 z m 3.66666,-0.68747 c -0.35753,0.11153 -0.71567,0.20493 -1.08333,0.2916 0.3684,-0.0864 0.72526,-0.1802 1.08333,-0.2916 z m -1.08333,0.2916 c -0.4042,0.0953 -0.8136,0.18633 -1.2292,0.25 0.41573,-0.0633 0.82466,-0.15507 1.2292,-0.25 z"
       id="path3171-7-3-3-8-7-3-4-9-0-8-3-0-8"
       inkscape:connector-curvature="0" />
  </g>
</svg>
