<?xml version="1.0" encoding="UTF-8" standalone="no"?>
<!-- Created with Inkscape (http://www.inkscape.org/) -->

<svg
   xmlns:dc="http://purl.org/dc/elements/1.1/"
   xmlns:cc="http://creativecommons.org/ns#"
   xmlns:rdf="http://www.w3.org/1999/02/22-rdf-syntax-ns#"
   xmlns:svg="http://www.w3.org/2000/svg"
   xmlns="http://www.w3.org/2000/svg"
   xmlns:sodipodi="http://sodipodi.sourceforge.net/DTD/sodipodi-0.dtd"
   xmlns:inkscape="http://www.inkscape.org/namespaces/inkscape"
   width="650"
   height="580"
   viewBox="0 0 650.00001 580.00001"
   id="svg7835"
   version="1.1"
   inkscape:version="0.91 r13725"
   sodipodi:docname="picto_launchpad.svg">
  <defs
     id="defs7837" />
  <sodipodi:namedview
     id="base"
     pagecolor="#ffffff"
     bordercolor="#666666"
     borderopacity="1.0"
     inkscape:pageopacity="0.0"
     inkscape:pageshadow="2"
     inkscape:zoom="1"
     inkscape:cx="198.98452"
     inkscape:cy="451.54622"
     inkscape:document-units="px"
     inkscape:current-layer="layer1"
     showgrid="false"
     inkscape:snap-bbox="true"
     inkscape:bbox-paths="true"
     inkscape:bbox-nodes="true"
     units="px"
     showguides="false"
     inkscape:snap-bbox-midpoints="true"
     inkscape:snap-intersection-paths="true"
     inkscape:object-nodes="true"
     inkscape:snap-smooth-nodes="true"
     inkscape:snap-midpoints="true" />
  <metadata
     id="metadata7840">
    <rdf:RDF>
      <cc:Work
         rdf:about="">
        <dc:format>image/svg+xml</dc:format>
        <dc:type
           rdf:resource="http://purl.org/dc/dcmitype/StillImage" />
        <dc:title />
      </cc:Work>
    </rdf:RDF>
  </metadata>
  <g
     inkscape:label="Layer 1"
     inkscape:groupmode="layer"
     id="layer1"
     transform="translate(0,-472.36216)">
    <g
       id="g5266"
       inkscape:label="ink_ext_XXXXXX"
       transform="matrix(0.3125,0,0,-0.3125,17.999894,613.67471)">
      <circle
         style="color:#000000;display:inline;overflow:visible;visibility:visible;opacity:1;fill:#0087ed;fill-opacity:1;fill-rule:nonzero;stroke:none;stroke-width:0.80000001;stroke-linecap:round;stroke-linejoin:round;stroke-miterlimit:4;stroke-dasharray:none;stroke-dashoffset:0;stroke-opacity:1;marker:none;enable-background:accumulate"
         id="circle5268"
         cx="102.40034"
         cy="-103.4001"
         r="102.4"
         transform="scale(1,-1)" />
      <g
         id="g5270"
         inkscape:label="Roundel"
         transform="matrix(0.62574557,0,0,-0.62574557,-309.47688,427.32645)"
         style="fill:#ffffff">
        <g
           id="g5272"
           transform="matrix(3.5217342,0,0,3.5217342,-7997.2999,-3141.3471)"
           inkscape:export-filename="/home/patrik/Documents/UCN/Projects/2nd year/Final exam/Final product/Roundel.png"
           inkscape:export-xdpi="300"
           inkscape:export-ydpi="300"
           style="fill:#ffffff">
          <path
             inkscape:connector-curvature="0"
             style="fill:#ffffff;fill-opacity:1"
             d="m 574.38281,462.98828 c -1.87508,1.125 -4.26573,2.71872 -7.17187,4.78125 -2.85959,2.01571 -5.90627,4.64064 -9.14063,7.875 -2.81248,2.81249 -4.78139,5.57819 -5.90625,8.29688 -1.07858,2.76579 -1.45307,5.48439 -1.125,8.15625 0.32822,2.67186 1.24215,5.27345 2.74219,7.80468 1.54687,2.57821 3.56261,5.10948 6.04687,7.59375 l 20.53126,20.53125 6.53906,-6.53906 -19.125,-19.125 c -4.45329,-4.45328 -6.93746,-8.34372 -7.45313,-11.67187 -0.51553,-3.32829 0.8906,-6.65623 4.21875,-9.98438 0.70312,-0.70326 1.45322,-1.40611 2.25,-2.10937 0.79678,-0.70326 1.54702,-1.35929 2.25,-1.96875 0.74995,-0.5625 1.40626,-1.07804 1.96875,-1.54688 0.65616,-0.46884 1.14863,-0.77316 1.47657,-0.91406 l 42.0664,42.06641 6.53906,-6.53907 -46.70703,-46.70703 z m -2.03515,20.77734 -6.54102,6.53907 30.86914,30.86719 c -0.14076,0.32807 -0.44508,0.82054 -0.91406,1.47656 -0.46884,0.56249 -0.9841,1.21894 -1.54688,1.96875 -0.6096,0.70298 -1.26549,1.45322 -1.96875,2.25 -0.70326,0.79678 -1.40625,1.54688 -2.10937,2.25 -3.32815,3.32815 -6.65622,4.73442 -9.98438,4.21875 -3.32815,-0.51553 -7.21873,-2.99998 -11.67187,-7.45313 l -19.125,-19.125 -6.53906,6.53907 20.53125,20.53124 c 2.4844,2.48441 5.01568,4.50001 7.59375,6.04688 2.53137,1.50004 5.13282,2.41411 7.80468,2.74219 2.67186,0.32807 5.3906,-0.0468 8.15625,-1.125 2.71883,-1.125 5.48426,-3.09377 8.29688,-5.90625 3.23436,-3.23436 5.85943,-6.28131 7.875,-9.14063 2.0624,-2.90628 3.65625,-5.29693 4.78125,-7.17187 l -35.50781,-35.50782 z"
             transform="matrix(0.72604847,0,0,0.72604847,2038.0872,672.87015)"
             id="path5274" />
        </g>
      </g>
    </g>
    <text
       sodipodi:linespacing="125%"
       id="text4639"
       y="501.4621"
       x="15.549561"
       style="font-style:normal;font-variant:normal;font-weight:bold;font-stretch:normal;font-size:22.5px;line-height:125%;font-family:'Open Sans';-inkscape-font-specification:'Open Sans, Bold';text-align:start;letter-spacing:0px;word-spacing:0px;writing-mode:lr-tb;text-anchor:start;fill:#000000;fill-opacity:1;stroke:none;stroke-width:1px;stroke-linecap:butt;stroke-linejoin:miter;stroke-opacity:1"
       xml:space="preserve"><tspan
         y="501.4621"
         x="15.549561"
         sodipodi:role="line"
         id="tspan4903">TEAMS (LAUNCHPAD)</tspan></text>
    <g
       transform="matrix(0.06835937,0,0,-0.06835937,17.999976,533.43053)"
       inkscape:label="ink_ext_XXXXXX"
       id="g5276">
      <circle
         transform="scale(1,-1)"
         r="102.4"
         cy="-103.4001"
         cx="102.40034"
         id="circle5278"
         style="color:#000000;display:inline;overflow:visible;visibility:visible;opacity:1;fill:#0087ed;fill-opacity:1;fill-rule:nonzero;stroke:none;stroke-width:0.80000001;stroke-linecap:round;stroke-linejoin:round;stroke-miterlimit:4;stroke-dasharray:none;stroke-dashoffset:0;stroke-opacity:1;marker:none;enable-background:accumulate" />
      <g
         style="fill:#ffffff"
         transform="matrix(0.62574557,0,0,-0.62574557,-309.47688,427.32645)"
         inkscape:label="Roundel"
         id="g5280">
        <g
           style="fill:#ffffff"
           inkscape:export-ydpi="300"
           inkscape:export-xdpi="300"
           inkscape:export-filename="/home/patrik/Documents/UCN/Projects/2nd year/Final exam/Final product/Roundel.png"
           transform="matrix(3.5217342,0,0,3.5217342,-7997.2999,-3141.3471)"
           id="g5282">
          <path
             id="path5284"
             transform="matrix(0.72604847,0,0,0.72604847,2038.0872,672.87015)"
             d="m 574.38281,462.98828 c -1.87508,1.125 -4.26573,2.71872 -7.17187,4.78125 -2.85959,2.01571 -5.90627,4.64064 -9.14063,7.875 -2.81248,2.81249 -4.78139,5.57819 -5.90625,8.29688 -1.07858,2.76579 -1.45307,5.48439 -1.125,8.15625 0.32822,2.67186 1.24215,5.27345 2.74219,7.80468 1.54687,2.57821 3.56261,5.10948 6.04687,7.59375 l 20.53126,20.53125 6.53906,-6.53906 -19.125,-19.125 c -4.45329,-4.45328 -6.93746,-8.34372 -7.45313,-11.67187 -0.51553,-3.32829 0.8906,-6.65623 4.21875,-9.98438 0.70312,-0.70326 1.45322,-1.40611 2.25,-2.10937 0.79678,-0.70326 1.54702,-1.35929 2.25,-1.96875 0.74995,-0.5625 1.40626,-1.07804 1.96875,-1.54688 0.65616,-0.46884 1.14863,-0.77316 1.47657,-0.91406 l 42.0664,42.06641 6.53906,-6.53907 -46.70703,-46.70703 z m -2.03515,20.77734 -6.54102,6.53907 30.86914,30.86719 c -0.14076,0.32807 -0.44508,0.82054 -0.91406,1.47656 -0.46884,0.56249 -0.9841,1.21894 -1.54688,1.96875 -0.6096,0.70298 -1.26549,1.45322 -1.96875,2.25 -0.70326,0.79678 -1.40625,1.54688 -2.10937,2.25 -3.32815,3.32815 -6.65622,4.73442 -9.98438,4.21875 -3.32815,-0.51553 -7.21873,-2.99998 -11.67187,-7.45313 l -19.125,-19.125 -6.53906,6.53907 20.53125,20.53124 c 2.4844,2.48441 5.01568,4.50001 7.59375,6.04688 2.53137,1.50004 5.13282,2.41411 7.80468,2.74219 2.67186,0.32807 5.3906,-0.0468 8.15625,-1.125 2.71883,-1.125 5.48426,-3.09377 8.29688,-5.90625 3.23436,-3.23436 5.85943,-6.28131 7.875,-9.14063 2.0624,-2.90628 3.65625,-5.29693 4.78125,-7.17187 l -35.50781,-35.50782 z"
             style="fill:#ffffff;fill-opacity:1"
             inkscape:connector-curvature="0" />
        </g>
      </g>
    </g>
    <g
       id="g4467"
       transform="translate(0,4)">
      <circle
         style="color:#000000;display:inline;overflow:visible;visibility:visible;opacity:1;fill:#0087ed;fill-opacity:1;fill-rule:nonzero;stroke:none;stroke-width:0.80000001;stroke-linecap:round;stroke-linejoin:round;stroke-miterlimit:4;stroke-dasharray:none;stroke-dashoffset:0;stroke-opacity:1;marker:none;enable-background:accumulate"
         id="circle4341"
         cx="272"
         cy="651.36218"
         r="32" />
      <g
         transform="matrix(1.6666667,0,0,1.6666667,252,631.36218)"
         id="g4234">
        <path
           style="fill:none"
           inkscape:connector-curvature="0"
           d="M 0,0 24,0 24,24 0,24 Z"
           id="path4224" />
        <path
           style="fill:#ffffff"
           inkscape:connector-curvature="0"
           d="M 19,3 14.82,3 C 14.4,1.84 13.3,1 12,1 10.7,1 9.6,1.84 9.18,3 L 5,3 C 3.9,3 3,3.9 3,5 l 0,14 c 0,1.1 0.9,2 2,2 l 14,0 c 1.1,0 2,-0.9 2,-2 L 21,5 C 21,3.9 20.1,3 19,3 Z m -7,0 c 0.55,0 1,0.45 1,1 0,0.55 -0.45,1 -1,1 C 11.45,5 11,4.55 11,4 11,3.45 11.45,3 12,3 Z M 10,17 6,13 7.41,11.59 10,14.17 16.59,7.58 18,9 10,17 Z"
           id="path4226" />
      </g>
    </g>
    <g
       id="g4461"
       transform="translate(-74,-70)">
      <circle
         style="color:#000000;display:inline;overflow:visible;visibility:visible;opacity:1;fill:#0087ed;fill-opacity:1;fill-rule:nonzero;stroke:none;stroke-width:0.80000001;stroke-linecap:round;stroke-linejoin:round;stroke-miterlimit:4;stroke-dasharray:none;stroke-dashoffset:0;stroke-opacity:1;marker:none;enable-background:accumulate"
         id="circle4311"
         cx="346"
         cy="651.36218"
         r="32" />
      <g
         transform="matrix(1.6666667,0,0,1.6666667,326,631.36218)"
         id="g4250">
        <path
           style="fill:none"
           inkscape:connector-curvature="0"
           d="M 0,0 24,0 24,24 0,24 Z"
           id="path4240" />
        <path
           style="fill:#ffffff"
           inkscape:connector-curvature="0"
           d="m 7,14 c -1.66,0 -3,1.34 -3,3 0,1.31 -1.16,2 -2,2 0.92,1.22 2.49,2 4,2 2.21,0 4,-1.79 4,-4 0,-1.66 -1.34,-3 -3,-3 z M 20.71,4.63 19.37,3.29 C 18.98,2.9 18.35,2.9 17.96,3.29 L 9,12.25 11.75,15 20.71,6.04 c 0.39,-0.39 0.39,-1.02 0,-1.41 z"
           id="path4242" />
      </g>
    </g>
    <g
       id="g4473"
       transform="translate(74,-70)">
      <circle
         r="32"
         cy="651.36218"
         cx="124"
         id="circle4357"
         style="color:#000000;display:inline;overflow:visible;visibility:visible;opacity:1;fill:#0087ed;fill-opacity:1;fill-rule:nonzero;stroke:none;stroke-width:0.80000001;stroke-linecap:round;stroke-linejoin:round;stroke-miterlimit:4;stroke-dasharray:none;stroke-dashoffset:0;stroke-opacity:1;marker:none;enable-background:accumulate" />
      <g
         transform="matrix(1.6666667,0,0,1.6666667,104,631.36218)"
         id="g4170">
        <path
           style="fill:#ffffff"
           inkscape:connector-curvature="0"
           d="M 4,8 8,8 8,4 4,4 4,8 Z m 6,12 4,0 0,-4 -4,0 0,4 z m -6,0 4,0 0,-4 -4,0 0,4 z m 0,-6 4,0 0,-4 -4,0 0,4 z m 6,0 4,0 0,-4 -4,0 0,4 z m 6,-10 0,4 4,0 0,-4 -4,0 z m -6,4 4,0 0,-4 -4,0 0,4 z m 6,6 4,0 0,-4 -4,0 0,4 z m 0,6 4,0 0,-4 -4,0 0,4 z"
           id="path4160" />
        <path
           style="fill:none"
           inkscape:connector-curvature="0"
           d="M 0,0 24,0 24,24 0,24 Z"
           id="path4162" />
      </g>
    </g>
    <g
       id="g4454"
       transform="translate(-296,4)">
      <circle
         style="color:#000000;display:inline;overflow:visible;visibility:visible;opacity:1;fill:#0087ed;fill-opacity:1;fill-rule:nonzero;stroke:none;stroke-width:0.80000001;stroke-linecap:round;stroke-linejoin:round;stroke-miterlimit:4;stroke-dasharray:none;stroke-dashoffset:0;stroke-opacity:1;marker:none;enable-background:accumulate"
         id="circle4265"
         cx="494"
         cy="651.36218"
         r="32" />
      <g
         transform="matrix(1.6666667,0,0,1.6666667,474,631.36218)"
         id="g4218">
        <path
           style="fill:#ffffff"
           inkscape:connector-curvature="0"
           d="M 19,4 5,4 C 3.89,4 3,4.9 3,6 l 0,12 c 0,1.1 0.89,2 2,2 l 14,0 c 1.1,0 2,-0.9 2,-2 L 21,6 C 21,4.9 20.11,4 19,4 Z M 19,18 5,18 5,8 19,8 19,18 Z"
           id="path4208" />
        <path
           style="fill:none"
           inkscape:connector-curvature="0"
           d="M 0,0 24,0 24,24 0,24 Z"
           id="path4210" />
        <path
           id="path4194"
           d="m 10.44,15.720001 -2.7600003,-2.76 2.7600003,-2.759999 -0.8400003,-0.84 -3.6,3.599999 3.6,3.6 0.8400003,-0.84 z m 3.12,0 2.76,-2.76 -2.76,-2.759999 0.84,-0.84 3.6,3.599999 -3.6,3.6 -0.84,-0.84 z"
           inkscape:connector-curvature="0"
           style="fill:#ffffff;fill-opacity:1" />
      </g>
    </g>
    <g
       id="g4570"
       transform="translate(-296,-74.000004)">
      <circle
         r="32"
         cy="729.36218"
         cx="346"
         id="circle4494"
         style="color:#000000;display:inline;overflow:visible;visibility:visible;opacity:1;fill:#0087ed;fill-opacity:1;fill-rule:nonzero;stroke:none;stroke-width:0.80000001;stroke-linecap:round;stroke-linejoin:round;stroke-miterlimit:4;stroke-dasharray:none;stroke-dashoffset:0;stroke-opacity:1;marker:none;enable-background:accumulate" />
      <g
         transform="matrix(1.6666667,0,0,1.6666667,326,709.36218)"
         id="g4560">
        <path
           style="fill:none"
           inkscape:connector-curvature="0"
           d="M 0,0 24,0 24,24 0,24 Z"
           id="path4550" />
        <path
           style="fill:#ffffff"
           inkscape:connector-curvature="0"
           d="M 20,8 17.19,8 C 16.74,7.22 16.12,6.55 15.37,6.04 L 17,4.41 15.59,3 13.42,5.17 C 12.96,5.06 12.49,5 12,5 11.51,5 11.04,5.06 10.59,5.17 L 8.41,3 7,4.41 8.62,6.04 C 7.88,6.55 7.26,7.22 6.81,8 L 4,8 4,10 6.09,10 C 6.04,10.33 6,10.66 6,11 l 0,1 -2,0 0,2 2,0 0,1 c 0,0.34 0.04,0.67 0.09,1 L 4,16 l 0,2 2.81,0 c 1.04,1.79 2.97,3 5.19,3 2.22,0 4.15,-1.21 5.19,-3 l 2.81,0 0,-2 -2.09,0 C 17.96,15.67 18,15.34 18,15 l 0,-1 2,0 0,-2 -2,0 0,-1 c 0,-0.34 -0.04,-0.67 -0.09,-1 L 20,10 20,8 Z m -6,8 -4,0 0,-2 4,0 0,2 z m 0,-4 -4,0 0,-2 4,0 0,2 z"
           id="path4552" />
      </g>
    </g>
    <g
       id="g4564"
       transform="translate(-296,-74)">
      <circle
         r="32"
         cy="729.36218"
         cx="420"
         id="circle4498"
         style="color:#000000;display:inline;overflow:visible;visibility:visible;opacity:1;fill:#0087ed;fill-opacity:1;fill-rule:nonzero;stroke:none;stroke-width:0.80000001;stroke-linecap:round;stroke-linejoin:round;stroke-miterlimit:4;stroke-dasharray:none;stroke-dashoffset:0;stroke-opacity:1;marker:none;enable-background:accumulate" />
      <g
         transform="matrix(1.6666667,0,0,1.6666667,400,712.69552)"
         id="g4512">
        <path
           style="fill:none"
           inkscape:connector-curvature="0"
           d="m 0,-2 24,0 0,24 -24,0 z"
           id="path4502" />
        <path
           style="fill:#ffffff"
           sodipodi:nodetypes="ssssssssss"
           inkscape:connector-curvature="0"
           d="M 12,0 C 6.475,0 2,4.475 2,10 2,15.525 6.475,20 12,20 17.525,20 22,15.525 22,10 22,4.475 17.525,0 12,0 Z m 0,12.5 c -1.375,0 -2.5,-1.125 -2.5,-2.5 0,-1.375 1.125,-2.5 2.5,-2.5 1.375,0 2.5,1.125 2.5,2.5 0,1.375 -1.125,2.5 -2.5,2.5 z"
           id="path4504" />
      </g>
    </g>
    <g
       id="g4653"
       inkscape:export-xdpi="90"
       inkscape:export-ydpi="90"
       transform="translate(-74,-148)">
      <circle
         r="32"
         cy="729.36218"
         cx="198"
         id="circle4490"
         style="color:#000000;display:inline;overflow:visible;visibility:visible;opacity:1;fill:#0087ed;fill-opacity:1;fill-rule:nonzero;stroke:none;stroke-width:0.80000001;stroke-linecap:round;stroke-linejoin:round;stroke-miterlimit:4;stroke-dasharray:none;stroke-dashoffset:0;stroke-opacity:1;marker:none;enable-background:accumulate" />
      <g
         transform="translate(300.27083,-333.18752)"
         id="g4648">
        <path
           style="fill:#ffffff"
           inkscape:connector-curvature="0"
           id="path4627"
           d="m -112.93801,1053.2169 c -2.21334,0 -3.98594,1.7867 -3.98594,4 0,2.2134 1.7726,4 3.98594,4 2.21333,0 3.99999,-1.7866 3.99999,-4 0,-2.2133 -1.78666,-4 -3.99999,-4 z m 10.66718,0 c -2.21333,0 -4,1.7867 -4,4 0,2.2134 1.78667,4 4,4 2.21333,0 3.985937,-1.7866 3.985937,-4 0,-2.2133 -1.772607,-4 -3.985937,-4 z m 10.665624,0 c -2.213337,0 -3.999997,1.7867 -3.999997,4 0,2.2134 1.78666,4 3.999997,4 2.213332,0 3.987499,-1.7866 3.987499,-4 0,-2.2133 -1.774167,-4 -3.987499,-4 z m -21.332804,10.6657 c -3.10667,0 -9.33282,1.5605 -9.33282,4.6672 l 0,3.3328 8,0 0,-3.3328 c 0,-1.9734 1.0799,-3.48 2.62657,-4.6 -0.46668,-0.04 -0.90709,-0.067 -1.29375,-0.067 z m 10.66718,0 c -3.10667,0 -9.33437,1.5605 -9.33437,4.6672 l 0,3.3328 18.667181,0 0,-3.3328 c 0,-3.1067 -6.226144,-4.6672 -9.332811,-4.6672 z m 10.665624,0 c -0.386668,0 -0.825521,0.027 -1.292188,0.067 1.546667,1.12 2.626562,2.6266 2.626562,4.6 l 0,3.3328 7.999999,0 0,-3.3328 c 0,-3.1066 -6.227707,-4.6672 -9.334373,-4.6672 z" />
        <g
           transform="matrix(-1.6666667,0,0,1.6666667,-82.270833,1042.5497)"
           id="g4639">
          <path
             style="fill:none"
             inkscape:connector-curvature="0"
             d="M 0,0 24,0 24,24 0,24 Z"
             id="path4641" />
        </g>
      </g>
    </g>
    <g
       id="g4203">
      <circle
         r="7"
         cy="526.36218"
         cx="79"
         id="circle4126"
         style="color:#000000;display:inline;overflow:visible;visibility:visible;opacity:1;fill:#0087ed;fill-opacity:1;fill-rule:nonzero;stroke:none;stroke-width:0.80000001;stroke-linecap:round;stroke-linejoin:round;stroke-miterlimit:4;stroke-dasharray:none;stroke-dashoffset:0;stroke-opacity:1;marker:none;enable-background:accumulate" />
      <g
         id="g4128"
         transform="matrix(0.41666667,0,0,0.41666667,74,521.36218)">
        <path
           id="path4130"
           d="M 0,0 24,0 24,24 0,24 Z"
           inkscape:connector-curvature="0"
           style="fill:none" />
        <path
           id="path4132"
           d="m 7,14 c -1.66,0 -3,1.34 -3,3 0,1.31 -1.16,2 -2,2 0.92,1.22 2.49,2 4,2 2.21,0 4,-1.79 4,-4 0,-1.66 -1.34,-3 -3,-3 z M 20.71,4.63 19.37,3.29 C 18.98,2.9 18.35,2.9 17.96,3.29 L 9,12.25 11.75,15 20.71,6.04 c 0.39,-0.39 0.39,-1.02 0,-1.41 z"
           inkscape:connector-curvature="0"
           style="fill:#ffffff" />
      </g>
    </g>
    <g
       id="g4209">
      <circle
         style="color:#000000;display:inline;overflow:visible;visibility:visible;opacity:1;fill:#0087ed;fill-opacity:1;fill-rule:nonzero;stroke:none;stroke-width:0.80000001;stroke-linecap:round;stroke-linejoin:round;stroke-miterlimit:4;stroke-dasharray:none;stroke-dashoffset:0;stroke-opacity:1;marker:none;enable-background:accumulate"
         id="circle4136"
         cx="60.999996"
         cy="526.36218"
         r="7" />
      <g
         id="g4138"
         transform="matrix(0.41666652,0,0,0.41666652,55.999998,521.36218)">
        <path
           id="path4140"
           d="M 4,8 8,8 8,4 4,4 4,8 Z m 6,12 4,0 0,-4 -4,0 0,4 z m -6,0 4,0 0,-4 -4,0 0,4 z m 0,-6 4,0 0,-4 -4,0 0,4 z m 6,0 4,0 0,-4 -4,0 0,4 z m 6,-10 0,4 4,0 0,-4 -4,0 z m -6,4 4,0 0,-4 -4,0 0,4 z m 6,6 4,0 0,-4 -4,0 0,4 z m 0,6 4,0 0,-4 -4,0 0,4 z"
           inkscape:connector-curvature="0"
           style="fill:#ffffff" />
        <path
           id="path4142"
           d="M 0,0 24,0 24,24 0,24 Z"
           inkscape:connector-curvature="0"
           style="fill:none" />
      </g>
    </g>
    <g
       id="g4215">
      <circle
         style="color:#000000;display:inline;overflow:visible;visibility:visible;opacity:1;fill:#0087ed;fill-opacity:1;fill-rule:nonzero;stroke:none;stroke-width:0.80000001;stroke-linecap:round;stroke-linejoin:round;stroke-miterlimit:4;stroke-dasharray:none;stroke-dashoffset:0;stroke-opacity:1;marker:none;enable-background:accumulate"
         id="circle4146"
         cx="43"
         cy="526.36218"
         r="7" />
      <g
         id="g4148"
         transform="matrix(0.24999991,0,0,0.24999991,68.567699,260.72485)">
        <path
           d="m -112.93801,1053.2169 c -2.21334,0 -3.98594,1.7867 -3.98594,4 0,2.2134 1.7726,4 3.98594,4 2.21333,0 3.99999,-1.7866 3.99999,-4 0,-2.2133 -1.78666,-4 -3.99999,-4 z m 10.66718,0 c -2.21333,0 -4,1.7867 -4,4 0,2.2134 1.78667,4 4,4 2.21333,0 3.985937,-1.7866 3.985937,-4 0,-2.2133 -1.772607,-4 -3.985937,-4 z m 10.665624,0 c -2.213337,0 -3.999997,1.7867 -3.999997,4 0,2.2134 1.78666,4 3.999997,4 2.213332,0 3.987499,-1.7866 3.987499,-4 0,-2.2133 -1.774167,-4 -3.987499,-4 z m -21.332804,10.6657 c -3.10667,0 -9.33282,1.5605 -9.33282,4.6672 l 0,3.3328 8,0 0,-3.3328 c 0,-1.9734 1.0799,-3.48 2.62657,-4.6 -0.46668,-0.04 -0.90709,-0.067 -1.29375,-0.067 z m 10.66718,0 c -3.10667,0 -9.33437,1.5605 -9.33437,4.6672 l 0,3.3328 18.667181,0 0,-3.3328 c 0,-3.1067 -6.226144,-4.6672 -9.332811,-4.6672 z m 10.665624,0 c -0.386668,0 -0.825521,0.027 -1.292188,0.067 1.546667,1.12 2.626562,2.6266 2.626562,4.6 l 0,3.3328 7.999999,0 0,-3.3328 c 0,-3.1066 -6.227707,-4.6672 -9.334373,-4.6672 z"
           id="path4150"
           inkscape:connector-curvature="0"
           style="fill:#ffffff" />
        <g
           id="g4152"
           transform="matrix(-1.6666667,0,0,1.6666667,-82.270833,1042.5497)">
          <path
             id="path4154"
             d="M 0,0 24,0 24,24 0,24 Z"
             inkscape:connector-curvature="0"
             style="fill:none" />
        </g>
      </g>
    </g>
  </g>
</svg>
