<?xml version="1.0" encoding="UTF-8" standalone="no"?>
<!-- Created with Inkscape (http://www.inkscape.org/) -->

<svg
   xmlns:dc="http://purl.org/dc/elements/1.1/"
   xmlns:cc="http://creativecommons.org/ns#"
   xmlns:rdf="http://www.w3.org/1999/02/22-rdf-syntax-ns#"
   xmlns:svg="http://www.w3.org/2000/svg"
   xmlns="http://www.w3.org/2000/svg"
   xmlns:xlink="http://www.w3.org/1999/xlink"
   xmlns:sodipodi="http://sodipodi.sourceforge.net/DTD/sodipodi-0.dtd"
   xmlns:inkscape="http://www.inkscape.org/namespaces/inkscape"
   id="svg2"
   version="1.1"
   inkscape:version="0.91 r13725"
   xml:space="preserve"
   width="1036.25"
   height="126.25"
   viewBox="0 0 1036.25 126.25"
   sodipodi:docname="wordmark.svg"><metadata
     id="metadata8"><rdf:RDF><cc:Work
         rdf:about=""><dc:format>image/svg+xml</dc:format><dc:type
           rdf:resource="http://purl.org/dc/dcmitype/StillImage" /><dc:title></dc:title></cc:Work></rdf:RDF></metadata><defs
     id="defs6"><linearGradient
       inkscape:collect="always"
       xlink:href="#linearGradient7336"
       id="linearGradient63059"
       gradientUnits="userSpaceOnUse"
       gradientTransform="matrix(-0.511281,0,0,0.42455,1578.612,-1.981893e-7)"
       x1="601.20001"
       y1="382.5"
       x2="990"
       y2="382.5" /><linearGradient
       inkscape:collect="always"
       xlink:href="#linearGradient8221"
       id="linearGradient63057"
       gradientUnits="userSpaceOnUse"
       gradientTransform="matrix(-0.501192,0,0,0.42455,1568.625,-1.981893e-7)"
       x1="380.92273"
       y1="360"
       x2="990"
       y2="360" /><linearGradient
       id="linearGradient7336"><stop
         style="stop-color:#ffffff;stop-opacity:1;"
         offset="0"
         id="stop7338" /><stop
         style="stop-color:#6fc1ff;stop-opacity:0;"
         offset="1"
         id="stop7340" /></linearGradient><linearGradient
       id="linearGradient8221"><stop
         style="stop-color:#6fc1ff;stop-opacity:1;"
         offset="0"
         id="stop8223" /><stop
         style="stop-color:#6fc1ff;stop-opacity:0;"
         offset="1"
         id="stop8225" /></linearGradient><linearGradient
       id="linearGradient57798"><stop
         style="stop-color:#ababab;stop-opacity:1;"
         offset="0"
         id="stop57800" /><stop
         style="stop-color:#000000;stop-opacity:0;"
         offset="1"
         id="stop57802" /></linearGradient><linearGradient
       id="linearGradient57806"><stop
         id="stop57808"
         offset="0"
         style="stop-color:#ffffff;stop-opacity:1;" /><stop
         id="stop57810"
         offset="1"
         style="stop-color:#96bcd8;stop-opacity:0" /></linearGradient><linearGradient
       id="linearGradient58210"><stop
         style="stop-color:#30a5ff;stop-opacity:1;"
         offset="0"
         id="stop58212" /><stop
         style="stop-color:#a6d9ff;stop-opacity:1;"
         offset="1"
         id="stop58214" /></linearGradient><linearGradient
       id="linearGradient22774"><stop
         style="stop-color:#dd9144;stop-opacity:1;"
         offset="0"
         id="stop22776" /><stop
         id="stop22784"
         offset="0"
         style="stop-color:#b06f2e;stop-opacity:1;" /><stop
         id="stop22782"
         offset="1"
         style="stop-color:#633406;stop-opacity:1;" /></linearGradient><linearGradient
       id="linearGradient22786"><stop
         style="stop-color:#737373;stop-opacity:1;"
         offset="0"
         id="stop22788" /><stop
         style="stop-color:#cdcdcd;stop-opacity:1;"
         offset="1"
         id="stop22790" /></linearGradient><linearGradient
       id="linearGradient24542"><stop
         style="stop-color:#7c7c7c;stop-opacity:1;"
         offset="0"
         id="stop24544" /><stop
         style="stop-color:#323232;stop-opacity:1;"
         offset="1"
         id="stop24546" /></linearGradient><linearGradient
       id="linearGradient30914"><stop
         style="stop-color:#545f00;stop-opacity:1;"
         offset="0"
         id="stop30916" /><stop
         style="stop-color:#000000;stop-opacity:1;"
         offset="1"
         id="stop30918" /></linearGradient><linearGradient
       id="linearGradient30922"><stop
         style="stop-color:#323232;stop-opacity:1;"
         offset="0"
         id="stop30924" /><stop
         style="stop-color:#ffffff;stop-opacity:1;"
         offset="1"
         id="stop30926" /></linearGradient><linearGradient
       id="linearGradient30930"><stop
         style="stop-color:#7c7c7c;stop-opacity:1;"
         offset="0"
         id="stop30932" /><stop
         style="stop-color:#ffffff;stop-opacity:1;"
         offset="1"
         id="stop30934" /></linearGradient><linearGradient
       id="linearGradient30944"><stop
         style="stop-color:#ffffff;stop-opacity:1;"
         offset="0"
         id="stop30946" /><stop
         style="stop-color:#7e7e7e;stop-opacity:1;"
         offset="1"
         id="stop30948" /></linearGradient><linearGradient
       id="linearGradient6016"><stop
         style="stop-color:#265ba7;stop-opacity:1;"
         offset="0"
         id="stop6018" /><stop
         style="stop-color:#1c4177;stop-opacity:1;"
         offset="1"
         id="stop6020" /></linearGradient><inkscape:perspective
       id="perspective2861"
       inkscape:persp3d-origin="0.5 : 0.33333333 : 1"
       inkscape:vp_z="1 : 0.5 : 1"
       inkscape:vp_y="0 : 1000 : 0"
       inkscape:vp_x="0 : 0.5 : 1"
       sodipodi:type="inkscape:persp3d" /><inkscape:perspective
       id="perspective3415"
       inkscape:persp3d-origin="0.5 : 0.33333333 : 1"
       inkscape:vp_z="1 : 0.5 : 1"
       inkscape:vp_y="0 : 1000 : 0"
       inkscape:vp_x="0 : 0.5 : 1"
       sodipodi:type="inkscape:persp3d" /><inkscape:perspective
       id="perspective3135"
       inkscape:persp3d-origin="0.5 : 0.33333333 : 1"
       inkscape:vp_z="1 : 0.5 : 1"
       inkscape:vp_y="0 : 1000 : 0"
       inkscape:vp_x="0 : 0.5 : 1"
       sodipodi:type="inkscape:persp3d" /><inkscape:perspective
       sodipodi:type="inkscape:persp3d"
       inkscape:vp_x="0 : 85.039497 : 1"
       inkscape:vp_y="0 : 1000 : 0"
       inkscape:vp_z="779.617 : 85.039497 : 1"
       inkscape:persp3d-origin="389.8085 : 56.692998 : 1"
       id="perspective29" /><inkscape:perspective
       id="perspective29-6"
       inkscape:persp3d-origin="389.8085 : 56.692998 : 1"
       inkscape:vp_z="779.617 : 85.039497 : 1"
       inkscape:vp_y="0 : 1000 : 0"
       inkscape:vp_x="0 : 85.039497 : 1"
       sodipodi:type="inkscape:persp3d" /><inkscape:perspective
       sodipodi:type="inkscape:persp3d"
       inkscape:vp_x="0 : 0.5 : 1"
       inkscape:vp_y="0 : 1000 : 0"
       inkscape:vp_z="1 : 0.5 : 1"
       inkscape:persp3d-origin="0.5 : 0.33333333 : 1"
       id="perspective3135-3" /><inkscape:perspective
       sodipodi:type="inkscape:persp3d"
       inkscape:vp_x="0 : 0.5 : 1"
       inkscape:vp_y="0 : 1000 : 0"
       inkscape:vp_z="1 : 0.5 : 1"
       inkscape:persp3d-origin="0.5 : 0.33333333 : 1"
       id="perspective3415-6" /><inkscape:perspective
       sodipodi:type="inkscape:persp3d"
       inkscape:vp_x="0 : 0.5 : 1"
       inkscape:vp_y="0 : 1000 : 0"
       inkscape:vp_z="1 : 0.5 : 1"
       inkscape:persp3d-origin="0.5 : 0.33333333 : 1"
       id="perspective2861-4" /><clipPath
       id="clipPath3743"
       clipPathUnits="userSpaceOnUse"><rect
         y="820.19275"
         x="-87.687256"
         height="395.27271"
         width="456.79099"
         id="rect3745"
         style="color:#000000;fill:#ffffff;fill-opacity:1;fill-rule:nonzero;stroke:none;stroke-width:1;marker:none;visibility:visible;display:inline;overflow:visible;enable-background:accumulate" /></clipPath><inkscape:perspective
       id="perspective2861-4-7"
       inkscape:persp3d-origin="0.5 : 0.33333333 : 1"
       inkscape:vp_z="1 : 0.5 : 1"
       inkscape:vp_y="0 : 1000 : 0"
       inkscape:vp_x="0 : 0.5 : 1"
       sodipodi:type="inkscape:persp3d" /><inkscape:perspective
       id="perspective3415-6-9"
       inkscape:persp3d-origin="0.5 : 0.33333333 : 1"
       inkscape:vp_z="1 : 0.5 : 1"
       inkscape:vp_y="0 : 1000 : 0"
       inkscape:vp_x="0 : 0.5 : 1"
       sodipodi:type="inkscape:persp3d" /><inkscape:perspective
       id="perspective3135-3-4"
       inkscape:persp3d-origin="0.5 : 0.33333333 : 1"
       inkscape:vp_z="1 : 0.5 : 1"
       inkscape:vp_y="0 : 1000 : 0"
       inkscape:vp_x="0 : 0.5 : 1"
       sodipodi:type="inkscape:persp3d" /><inkscape:perspective
       sodipodi:type="inkscape:persp3d"
       inkscape:vp_x="0 : 85.039497 : 1"
       inkscape:vp_y="0 : 1000 : 0"
       inkscape:vp_z="779.617 : 85.039497 : 1"
       inkscape:persp3d-origin="389.8085 : 56.692998 : 1"
       id="perspective29-6-1" /><inkscape:perspective
       id="perspective29-69"
       inkscape:persp3d-origin="389.8085 : 56.692998 : 1"
       inkscape:vp_z="779.617 : 85.039497 : 1"
       inkscape:vp_y="0 : 1000 : 0"
       inkscape:vp_x="0 : 85.039497 : 1"
       sodipodi:type="inkscape:persp3d" /><inkscape:perspective
       sodipodi:type="inkscape:persp3d"
       inkscape:vp_x="0 : 0.5 : 1"
       inkscape:vp_y="0 : 1000 : 0"
       inkscape:vp_z="1 : 0.5 : 1"
       inkscape:persp3d-origin="0.5 : 0.33333333 : 1"
       id="perspective3135-1" /><inkscape:perspective
       sodipodi:type="inkscape:persp3d"
       inkscape:vp_x="0 : 0.5 : 1"
       inkscape:vp_y="0 : 1000 : 0"
       inkscape:vp_z="1 : 0.5 : 1"
       inkscape:persp3d-origin="0.5 : 0.33333333 : 1"
       id="perspective3415-3" /><inkscape:perspective
       sodipodi:type="inkscape:persp3d"
       inkscape:vp_x="0 : 0.5 : 1"
       inkscape:vp_y="0 : 1000 : 0"
       inkscape:vp_z="1 : 0.5 : 1"
       inkscape:persp3d-origin="0.5 : 0.33333333 : 1"
       id="perspective2861-9" /></defs><sodipodi:namedview
     pagecolor="#ffffff"
     bordercolor="#666666"
     borderopacity="1"
     objecttolerance="10"
     gridtolerance="10"
     guidetolerance="10"
     inkscape:pageopacity="0"
     inkscape:pageshadow="2"
     inkscape:window-width="640"
     inkscape:window-height="480"
     id="namedview4"
     showgrid="false"
     inkscape:snap-bbox="true"
     inkscape:bbox-nodes="true"
     inkscape:bbox-paths="true"
     inkscape:snap-bbox-edge-midpoints="true"
     inkscape:snap-bbox-midpoints="true"
     inkscape:zoom="0.70710678"
     inkscape:cx="853.5386"
     inkscape:cy="94.48675"
     inkscape:current-layer="g10" /><g
     id="g10"
     inkscape:groupmode="layer"
     inkscape:label="ink_ext_XXXXXX"
     transform="matrix(1.25,0,0,-1.25,0,126.25)"><g
       id="g4838"><path
         d="m 572.367,84.6941 c -10.347,-0.2812 -18.515,-4 -24.523,-11.1293 -6.223,-7.4218 -9.352,-17.675 -9.352,-30.75 0,-13.0429 3.129,-23.2648 9.352,-30.6867 6.25,-7.42224 14.836,-11.129272 25.785,-11.129272 10.98,0 19.586,3.707032 25.805,11.129272 6.222,7.4219 9.332,17.6438 9.332,30.6867 0,13.075 -3.11,23.3282 -9.332,30.75 -6.219,7.4223 -14.825,11.125 -25.805,11.1293 -0.43,0 -0.844,0.0079 -1.262,0 z m 0.77,-15.066 c 0.164,0.0078 0.324,0 0.492,0 5.398,0 9.582,-2.3359 12.539,-7.0203 2.957,-4.6828 4.449,-11.293 4.449,-19.793 0,-8.4636 -1.492,-15.0269 -4.449,-19.7109 -2.957,-4.6828 -7.141,-7.0391 -12.539,-7.0391 -5.367,0 -9.52,2.3563 -12.477,7.0391 -2.957,4.684 -4.449,11.2473 -4.449,19.7109 0,8.5 1.492,15.1102 4.449,19.793 2.868,4.5352 6.856,6.8793 11.985,7.0203 z"
         style="fill:#000000;fill-opacity:1;fill-rule:nonzero;stroke:none"
         id="path14"
         inkscape:connector-curvature="0" /><path
         d="M 455.496,8.56484 C 446.383,0.912891 432.828,0.998828 427.18,0.998828 c -11.379,0 -20.391,3.746092 -27.039,11.242172 -6.649,7.527 -9.973,17.7231 -9.973,30.582 0,13.004 3.387,23.2348 10.156,30.6918 6.77,7.4571 16.043,11.1832 27.817,11.1832 4.543,0 8.89,-0.5039 13.039,-1.5121 4.175,-1.007 8.109,-2.5031 11.8,-4.4839 l -4.738,-14.0122 c -2.074,1.1372 -4.449,2.2543 -6.652,3.043 -3.75,1.2621 -7.52,1.891 -11.301,1.891 -7.016,0 -12.43,-2.3238 -16.242,-6.9687 -3.781,-4.6129 -5.672,-11.2223 -5.672,-19.8321 0,-8.539 1.832,-15.1289 5.492,-19.7769 3.66,-4.6492 9.16,-6.9691 15.598,-6.9691 6.543,0 10.597,1.6492 12.758,3.3871 l 0,13.957 -14.176,0 0,13.941 27.449,0"
         style="fill:#000000;fill-opacity:1;fill-rule:nonzero;stroke:none"
         id="path16"
         inkscape:connector-curvature="0" /><path
         d="m 467.535,83.241 11.113,0 35.114,-48.484 0,48.484 14.988,0 0,-80.67616 -11.113,0 -35.114,48.48516 0,-48.48516 -14.988,0 0,80.67616"
         style="fill:#000000;fill-opacity:1;fill-rule:nonzero;stroke:none"
         id="path18"
         inkscape:connector-curvature="0" /><path
         d="m 620.328,83.241 22.414,0 15.555,-50.3629 15.648,50.3629 18.946,0 8.562,-80.67616 -16.652,0 -5.137,50.44996 -15.738,-50.68785 -11.164,0 -15.739,52.39925 -5.132,-52.16136 -16.7,0 8.559,80.67616"
         style="fill:#000000;fill-opacity:1;fill-rule:nonzero;stroke:none"
         id="path20"
         inkscape:connector-curvature="0" /><path
         d="m 713.473,83.241 47.531,0 0,-15.7262 -29.918,0 0,-16.7308 23,0 0,-14.0121 -23,0 0,-18.4797 30.926,0 0,-15.72736 -48.539,0 0,80.67616"
         style="fill:#000000;fill-opacity:1;fill-rule:nonzero;stroke:none"
         id="path22"
         inkscape:connector-curvature="0" /><path
         style="font-variant:normal;font-weight:normal;font-size:medium;font-family:Ubuntu;-inkscape-font-specification:Ubuntu;writing-mode:lr-tb;fill:#000000;fill-opacity:1;fill-rule:nonzero;stroke:none"
         d="M 47.873327,5.00703 Q 44.225839,4.095158 38.184686,3.069302 32.257518,2.043446 24.392622,2.043446 q -6.83904,0 -11.512384,1.937728 Q 8.206894,6.032886 5.357294,9.6803741 2.507694,13.327862 1.2538701,18.229174 4.61e-5,23.24447 4.61e-5,29.285622 l 0,33.283329 10.6005119,0 0,-31.003649 q 0,-10.82848 3.41952,-15.501824 3.41952,-4.673344 11.512384,-4.673344 1.70976,0 3.533504,0.113984 1.823744,0.113984 3.41952,0.227968 1.595776,0.227968 2.8496,0.341952 1.367808,0.227968 1.937728,0.455936 l 0,50.038977 10.600513,0 0,-57.561921 z"
         id="path4450"
         inkscape:connector-curvature="0" /><path
         style="font-variant:normal;font-weight:normal;font-size:medium;font-family:Ubuntu;-inkscape-font-specification:Ubuntu;writing-mode:lr-tb;fill:#000000;fill-opacity:1;fill-rule:nonzero;stroke:none"
         d="m 76.711281,59.947319 q 1.937728,1.253824 5.813184,2.621632 3.98944,1.367808 9.118725,1.367808 6.3831,0 11.28441,-2.27968 5.0153,-2.27968 8.43482,-6.383104 3.41952,-4.103425 5.12928,-9.802625 1.82374,-5.6992 1.82374,-12.53824 0,-7.180992 -2.16569,-12.994176 -2.05172,-5.6992 -5.92717,-9.68864 -3.87546,-3.98944 -9.34669,-6.155136 -5.47123,-2.165696 -12.310273,-2.165696 -7.40896,0 -13.10816,1.025856 -5.6992,1.025856 -9.346688,2.051712 l 0,84.918081 10.600512,1.823744 0,-31.801536 z m 0,-47.417345 q 1.595776,-0.455936 4.445376,-0.911872 2.963584,-0.341952 7.294976,-0.341952 8.548797,0 13.678077,5.585216 5.12928,5.6992 5.12928,16.071744 0,4.55936 -0.91187,8.5488 -0.91187,3.98944 -2.96358,6.83904 -2.05171,2.963584 -5.35725,4.559361 -3.19155,1.70976 -7.750913,1.70976 -4.331392,0 -7.97888,-1.481792 -3.647488,-1.481793 -5.585216,-3.077569 l 0,-37.500736 z"
         id="path4452"
         inkscape:connector-curvature="0" /><path
         style="font-variant:normal;font-weight:normal;font-size:medium;font-family:Ubuntu;-inkscape-font-specification:Ubuntu;writing-mode:lr-tb;fill:#000000;fill-opacity:1;fill-rule:nonzero;stroke:none"
         d="m 180.43671,5.00703 q -3.64749,-0.911872 -9.68864,-1.937728 -5.92717,-1.025856 -13.79206,-1.025856 -6.83904,0 -11.51239,1.937728 -4.67334,2.051712 -7.52294,5.6992001 -2.8496,3.6474879 -4.10342,8.5487999 -1.25383,5.015296 -1.25383,11.056448 l 0,33.283329 10.60051,0 0,-31.003649 q 0,-10.82848 3.41952,-15.501824 3.41952,-4.673344 11.51239,-4.673344 1.70976,0 3.5335,0.113984 1.82375,0.113984 3.41952,0.227968 1.59578,0.227968 2.8496,0.341952 1.36781,0.227968 1.93773,0.455936 l 0,50.038977 10.60051,0 0,-57.561921 z"
         id="path4454"
         inkscape:connector-curvature="0" /><path
         style="font-variant:normal;font-weight:normal;font-size:medium;font-family:Ubuntu;-inkscape-font-specification:Ubuntu;writing-mode:lr-tb;fill:#000000;fill-opacity:1;fill-rule:nonzero;stroke:none"
         d="m 198.67415,60.859191 q 3.64749,0.911872 9.68864,1.937728 6.04116,1.025856 13.90605,1.025856 7.06701,0 11.74035,-2.051712 4.67335,-1.937728 7.40896,-5.585216 2.8496,-3.533504 3.98944,-8.548801 1.13984,-5.015296 1.13984,-11.056448 l 0,-33.283328 -10.60051,0 0,31.003648 q 0,5.471232 -0.79789,9.346688 -0.6839,3.875456 -2.39366,6.26912 -1.70976,2.393664 -4.55936,3.419521 -2.8496,1.13984 -7.06701,1.13984 -1.70976,0 -3.5335,-0.113984 -1.82375,-0.113984 -3.53351,-0.341952 -1.59577,-0.113984 -2.96358,-0.341952 -1.25382,-0.227968 -1.82374,-0.341952 l 0,-50.038977 -10.60052,0 0,57.561921 z"
         id="path4456"
         inkscape:connector-curvature="0" /><path
         style="font-variant:normal;font-weight:normal;font-size:medium;font-family:Ubuntu;-inkscape-font-specification:Ubuntu;writing-mode:lr-tb;fill:#000000;fill-opacity:1;fill-rule:nonzero;stroke:none"
         d="m 274.01758,62.568951 22.45485,0 0,-8.890752 -22.45485,0 0,-27.356161 q 0,-4.445376 0.6839,-7.40896 0.68391,-2.8496 2.05172,-4.55936 1.3678,-1.595776 3.41952,-2.27968 2.05171,-0.683904 4.78733,-0.683904 4.78732,0 7.63692,1.025856 2.96359,1.13984 4.10343,1.595776 l 2.05171,-8.776768 q -1.59578,-0.797888 -5.58522,-1.937728 -3.98944,-1.253824 -9.11872,-1.253824 -6.04115,0 -10.03059,1.481792 -3.87546,1.595776 -6.26912,4.673344 -2.39366,3.077568 -3.41952,7.522944 -0.91187,4.55936 -0.91187,10.486528 l 0,52.888577 10.60051,1.823744 0,-18.351424 z"
         id="path4458"
         inkscape:connector-curvature="0" /><path
         style="font-variant:normal;font-weight:normal;font-size:medium;font-family:Ubuntu;-inkscape-font-specification:Ubuntu;writing-mode:lr-tb;fill:#000000;fill-opacity:1;fill-rule:nonzero;stroke:none"
         d="m 357.11191,5.00703 q -3.64749,-0.911872 -9.68864,-1.937728 -5.92717,-1.025856 -13.79206,-1.025856 -6.83904,0 -11.51239,1.937728 -4.67334,2.051712 -7.52294,5.6992001 -2.8496,3.6474879 -4.10342,8.5487999 -1.25383,5.015296 -1.25383,11.056448 l 0,33.283329 10.60051,0 0,-31.003649 q 0,-10.82848 3.41952,-15.501824 3.41952,-4.673344 11.51239,-4.673344 1.70976,0 3.5335,0.113984 1.82375,0.113984 3.41952,0.227968 1.59578,0.227968 2.8496,0.341952 1.36781,0.227968 1.93773,0.455936 l 0,50.038977 10.60051,0 0,-57.561921 z"
         id="path4460"
         inkscape:connector-curvature="0" /><g
         id="layer3"
         inkscape:label="Roundel"
         transform="matrix(0.31287279,0,0,-0.31287279,256.46138,-140.43682)"><g
           id="g3694"
           transform="matrix(3.5217342,0,0,3.5217342,-7997.2999,-3141.3471)"
           inkscape:export-filename="/home/patrik/Documents/UCN/Projects/2nd year/Final exam/Final product/Roundel.png"
           inkscape:export-xdpi="300"
           inkscape:export-ydpi="300" /></g><g
         transform="translate(-158.199,47.094749)"
         id="g4821"><circle
           style="color:#000000;display:inline;overflow:visible;visibility:visible;opacity:1;fill:#0087ed;fill-opacity:1;fill-rule:nonzero;stroke:none;stroke-width:0.80000001;stroke-linecap:round;stroke-linejoin:round;stroke-miterlimit:4;stroke-dasharray:none;stroke-dashoffset:0;stroke-opacity:1;marker:none;enable-background:accumulate"
           id="path4807"
           cx="961.1756"
           cy="-27.575611"
           r="25.975599"
           transform="scale(1,-1)" /><g
           id="g4798"
           inkscape:label="Roundel"
           transform="matrix(0.15873161,0,0,-0.15873161,856.69553,109.74534)"
           style="fill:#ffffff"><g
             id="g4800"
             transform="matrix(3.5217342,0,0,3.5217342,-7997.2999,-3141.3471)"
             inkscape:export-filename="/home/patrik/Documents/UCN/Projects/2nd year/Final exam/Final product/Roundel.png"
             inkscape:export-xdpi="300"
             inkscape:export-ydpi="300"
             style="fill:#ffffff"><path
               transform="matrix(0.72604847,0,0,0.72604847,2038.0872,672.87015)"
               style="fill:#ffffff;fill-opacity:1"
               d="m 574.38281,462.98828 c -1.87508,1.125 -4.26573,2.71872 -7.17187,4.78125 -2.85959,2.01571 -5.90627,4.64064 -9.14063,7.875 -2.81248,2.81249 -4.78139,5.57819 -5.90625,8.29688 -1.07858,2.76579 -1.45307,5.48439 -1.125,8.15625 0.32822,2.67186 1.24215,5.27345 2.74219,7.80468 1.54687,2.57821 3.56261,5.10948 6.04687,7.59375 l 20.53126,20.53125 6.53906,-6.53906 -19.125,-19.125 c -4.45329,-4.45328 -6.93746,-8.34372 -7.45313,-11.67187 -0.51553,-3.32829 0.8906,-6.65623 4.21875,-9.98438 0.70312,-0.70326 1.45322,-1.40611 2.25,-2.10937 0.79678,-0.70326 1.54702,-1.35929 2.25,-1.96875 0.74995,-0.5625 1.40626,-1.07804 1.96875,-1.54688 0.65616,-0.46884 1.14863,-0.77316 1.47657,-0.91406 l 42.0664,42.06641 6.53906,-6.53907 -46.70703,-46.70703 z m -2.03515,20.77734 -6.54102,6.53907 30.86914,30.86719 c -0.14076,0.32807 -0.44508,0.82054 -0.91406,1.47656 -0.46884,0.56249 -0.9841,1.21894 -1.54688,1.96875 -0.6096,0.70298 -1.26549,1.45322 -1.96875,2.25 -0.70326,0.79678 -1.40625,1.54688 -2.10937,2.25 -3.32815,3.32815 -6.65622,4.73442 -9.98438,4.21875 -3.32815,-0.51553 -7.21873,-2.99998 -11.67187,-7.45313 l -19.125,-19.125 -6.53906,6.53907 20.53125,20.53124 c 2.4844,2.48441 5.01568,4.50001 7.59375,6.04688 2.53137,1.50004 5.13282,2.41411 7.80468,2.74219 2.67186,0.32807 5.3906,-0.0468 8.15625,-1.125 2.71883,-1.125 5.48426,-3.09377 8.29688,-5.90625 3.23436,-3.23436 5.85943,-6.28131 7.875,-9.14063 2.0624,-2.90628 3.65625,-5.29693 4.78125,-7.17187 l -35.50781,-35.50782 z"
               id="circle4802"
               inkscape:connector-curvature="0" /></g></g></g></g></g></svg>