<?xml version="1.0" encoding="UTF-8" standalone="no"?>
<!-- Created with Inkscape (http://www.inkscape.org/) -->

<svg
   xmlns:dc="http://purl.org/dc/elements/1.1/"
   xmlns:cc="http://creativecommons.org/ns#"
   xmlns:rdf="http://www.w3.org/1999/02/22-rdf-syntax-ns#"
   xmlns:svg="http://www.w3.org/2000/svg"
   xmlns="http://www.w3.org/2000/svg"
   xmlns:sodipodi="http://sodipodi.sourceforge.net/DTD/sodipodi-0.dtd"
   xmlns:inkscape="http://www.inkscape.org/namespaces/inkscape"
   width="20"
   height="20"
   id="svg7192"
   version="1.1"
   inkscape:version="0.48.5 r10040"
   sodipodi:docname="license-cc.svg">
  <defs
     id="defs7194" />
  <sodipodi:namedview
     id="base"
     pagecolor="#2f2f2f"
     bordercolor="#666666"
     borderopacity="1.0"
     inkscape:pageopacity="1"
     inkscape:pageshadow="2"
     inkscape:zoom="11.313708"
     inkscape:cx="13.924748"
     inkscape:cy="9.2563781"
     inkscape:document-units="px"
     inkscape:current-layer="layer1"
     showgrid="false"
     fit-margin-top="0"
     fit-margin-left="0"
     fit-margin-right="0"
     fit-margin-bottom="0"
     inkscape:window-width="1920"
     inkscape:window-height="1014"
     inkscape:window-x="0"
     inkscape:window-y="28"
     inkscape:window-maximized="1" />
  <metadata
     id="metadata7197">
    <rdf:RDF>
      <cc:Work
         rdf:about="">
        <dc:format>image/svg+xml</dc:format>
        <dc:type
           rdf:resource="http://purl.org/dc/dcmitype/StillImage" />
        <dc:title></dc:title>
      </cc:Work>
    </rdf:RDF>
  </metadata>
  <g
     inkscape:label="Layer 1"
     inkscape:groupmode="layer"
     id="layer1"
     transform="translate(-106.9387,-554.44492)">
    <g
       id="g7280"
       transform="matrix(1.0013588,0,0,1.0013588,-0.14531301,-0.78058103)">
      <path
         d="m 119.61232,561.98598 c 0,-0.35627 -0.28921,-0.64488 -0.64487,-0.64488 l -4.0848,0 c -0.35611,0 -0.64487,0.28861 -0.64487,0.64488 l 0,4.08502 1.13933,0 0,4.83718 3.09572,0 0,-4.83718 1.13949,0 0,-4.08502 0,0 z"
         id="path7161-0-5"
         style="fill:#ffffff;fill-opacity:1"
         inkscape:connector-curvature="0" />
      <circle
         cx="32"
         cy="200.11914"
         r="4.47754"
         id="circle7163-6"
         sodipodi:cx="32"
         sodipodi:cy="200.11914"
         sodipodi:rx="4.47754"
         sodipodi:ry="4.47754"
         style="fill:#ffffff;fill-opacity:1"
         d="m 36.47754,200.11914 c 0,2.47288 -2.004663,4.47754 -4.47754,4.47754 -2.472877,0 -4.47754,-2.00466 -4.47754,-4.47754 0,-2.47288 2.004663,-4.47754 4.47754,-4.47754 2.472877,0 4.47754,2.00466 4.47754,4.47754 z"
         transform="matrix(0.31207117,0,0,0.31207595,106.9387,496.9538)" />
      <path
         clip-rule="evenodd"
         d="m 116.91248,554.47208 c -2.76644,0 -5.10803,0.96518 -7.02419,2.89585 -1.96675,1.99741 -2.94959,4.36083 -2.94959,7.09058 0,2.72945 0.98284,5.07672 2.94959,7.04061 1.96613,1.96388 4.30774,2.94582 7.02419,2.94582 2.74952,0 5.13272,-0.98987 7.14929,-2.97081 1.89955,-1.88038 2.84979,-4.21912 2.84979,-7.01562 0,-2.79649 -0.96669,-5.15992 -2.89977,-7.09058 -1.93338,-1.93067 -4.29982,-2.89585 -7.09931,-2.89585 z m 0.025,1.79718 c 2.26648,0 4.19102,0.79878 5.77453,2.39695 1.59967,1.5811 2.39936,3.51177 2.39936,5.7923 0,2.29669 -0.78292,4.20267 -2.34968,5.71733 -1.64996,1.63108 -3.59126,2.44662 -5.82421,2.44662 -2.23341,0 -4.15811,-0.807 -5.77454,-2.42163 -1.61643,-1.61463 -2.42465,-3.52853 -2.42465,-5.74232 0,-2.21379 0.8166,-4.14445 2.44979,-5.7923 1.56661,-1.59817 3.48277,-2.39695 5.7494,-2.39695 z"
         id="path7165-7-3"
         style="fill:#ffffff;fill-opacity:1;fill-rule:evenodd"
         inkscape:connector-curvature="0" />
    </g>
  </g>
</svg>
