<?xml version="1.0" encoding="UTF-8" standalone="no"?>
<!-- Created with Inkscape (http://www.inkscape.org/) -->

<svg
   xmlns:i="http://ns.adobe.com/AdobeIllustrator/10.0/"
   xmlns:dc="http://purl.org/dc/elements/1.1/"
   xmlns:cc="http://creativecommons.org/ns#"
   xmlns:rdf="http://www.w3.org/1999/02/22-rdf-syntax-ns#"
   xmlns:svg="http://www.w3.org/2000/svg"
   xmlns="http://www.w3.org/2000/svg"
   xmlns:sodipodi="http://sodipodi.sourceforge.net/DTD/sodipodi-0.dtd"
   xmlns:inkscape="http://www.inkscape.org/namespaces/inkscape"
   width="19.97286"
   height="20"
   id="svg7192"
   version="1.1"
   inkscape:version="0.48.5 r10040"
   sodipodi:docname="New document 5">
  <defs
     id="defs7194" />
  <sodipodi:namedview
     id="base"
     pagecolor="#2f2f2f"
     bordercolor="#666666"
     borderopacity="1.0"
     inkscape:pageopacity="1"
     inkscape:pageshadow="2"
     inkscape:zoom="11.313708"
     inkscape:cx="45.070347"
     inkscape:cy="9.2699633"
     inkscape:document-units="px"
     inkscape:current-layer="layer1"
     showgrid="false"
     fit-margin-top="0"
     fit-margin-left="0"
     fit-margin-right="0"
     fit-margin-bottom="0"
     inkscape:window-width="1920"
     inkscape:window-height="1014"
     inkscape:window-x="0"
     inkscape:window-y="28"
     inkscape:window-maximized="1" />
  <metadata
     id="metadata7197">
    <rdf:RDF>
      <cc:Work
         rdf:about="">
        <dc:format>image/svg+xml</dc:format>
        <dc:type
           rdf:resource="http://purl.org/dc/dcmitype/StillImage" />
        <dc:title></dc:title>
      </cc:Work>
    </rdf:RDF>
  </metadata>
  <g
     inkscape:label="Layer 1"
     inkscape:groupmode="layer"
     id="layer1"
     transform="translate(-75.793096,-554.4585)">
    <g
       id="g7271"
       transform="matrix(1.0013588,0,0,1,-0.10298719,0)">
      <path
         i:knockout="Off"
         clip-rule="evenodd"
         d="m 85.765957,554.4585 c -2.740068,0 -5.150999,1.01392 -7.014106,2.90416 -1.9177,1.94547 -2.958755,4.46591 -2.958755,7.09616 0,2.65739 1.013601,5.12323 2.931616,7.04093 1.918016,1.91801 4.410995,2.95875 7.041245,2.95875 2.629935,0 5.178137,-1.04105 7.150746,-2.98621 1.863107,-1.83565 2.849254,-4.27404 2.849254,-7.01379 0,-2.7123 -0.986147,-5.17813 -2.876708,-7.0687 -1.918016,-1.91738 -4.38354,-2.9313 -7.123292,-2.9313 z m 0.02714,1.8082 c 2.246836,0 4.246899,0.84919 5.808324,2.41093 1.534287,1.53429 2.356023,3.56181 2.356023,5.78087 0,2.24652 -0.794598,4.21913 -2.328568,5.72628 -1.61665,1.58919 -3.69876,2.43838 -5.835779,2.43838 -2.164158,0 -4.191675,-0.84919 -5.753416,-2.41093 -1.561741,-1.56174 -2.438386,-3.61639 -2.438386,-5.75341 0,-2.16448 0.876645,-4.21913 2.438386,-5.80833 1.534286,-1.56174 3.506895,-2.38379 5.753416,-2.38379 z"
         id="path7181-8-0"
         style="fill:#ffffff;fill-opacity:1;fill-rule:evenodd"
         inkscape:connector-curvature="0" />
      <path
         i:knockout="Off"
         clip-rule="evenodd"
         d="m 85.664344,562.79704 c -0.564865,-1.03001 -1.528606,-1.43993 -2.647291,-1.43993 -1.628325,0 -2.924358,1.15182 -2.924358,3.10171 0,1.9827 1.218404,3.10171 2.979583,3.10171 1.130045,0 2.093786,-0.62041 2.625201,-1.56175 l -1.240494,-0.63144 c -0.277067,0.66458 -0.698034,0.86402 -1.229448,0.86402 -0.919562,0 -1.340529,-0.76431 -1.340529,-1.77223 0,-1.00792 0.354698,-1.77254 1.340529,-1.77254 0.265707,0 0.797437,0.14422 1.107639,0.80849 l 1.329168,-0.69804 z"
         id="path7183-2-1"
         style="fill:#ffffff;fill-opacity:1;fill-rule:evenodd"
         inkscape:connector-curvature="0" />
      <path
         i:knockout="Off"
         clip-rule="evenodd"
         d="m 91.433223,562.79704 c -0.564865,-1.03001 -1.528606,-1.43993 -2.647291,-1.43993 -1.628325,0 -2.924358,1.15182 -2.924358,3.10171 0,1.9827 1.218404,3.10171 2.979898,3.10171 1.12973,0 2.093471,-0.62041 2.625201,-1.56175 l -1.240493,-0.63144 c -0.277068,0.66458 -0.697719,0.86402 -1.229449,0.86402 -0.919562,0 -1.340528,-0.76431 -1.340528,-1.77223 0,-1.00792 0.354697,-1.77254 1.340528,-1.77254 0.265707,0 0.797438,0.14422 1.10764,0.80849 l 1.328852,-0.69804 z"
         id="path7185-5-4"
         style="fill:#ffffff;fill-opacity:1;fill-rule:evenodd"
         inkscape:connector-curvature="0" />
    </g>
  </g>
</svg>
