<?xml version="1.0" encoding="UTF-8" standalone="no"?>
<!-- Created with Inkscape (http://www.inkscape.org/) -->

<svg
   xmlns:dc="http://purl.org/dc/elements/1.1/"
   xmlns:cc="http://creativecommons.org/ns#"
   xmlns:rdf="http://www.w3.org/1999/02/22-rdf-syntax-ns#"
   xmlns:svg="http://www.w3.org/2000/svg"
   xmlns="http://www.w3.org/2000/svg"
   xmlns:sodipodi="http://sodipodi.sourceforge.net/DTD/sodipodi-0.dtd"
   xmlns:inkscape="http://www.inkscape.org/namespaces/inkscape"
   width="20"
   height="19.999928"
   id="svg7192"
   version="1.1"
   inkscape:version="0.48.5 r10040"
   sodipodi:docname="license-by.svg">
  <defs
     id="defs7194" />
  <sodipodi:namedview
     id="base"
     pagecolor="#2f2f2f"
     bordercolor="#666666"
     borderopacity="1.0"
     inkscape:pageopacity="1"
     inkscape:pageshadow="2"
     inkscape:zoom="11.313708"
     inkscape:cx="-17.220906"
     inkscape:cy="9.2563328"
     inkscape:document-units="px"
     inkscape:current-layer="layer1"
     showgrid="false"
     fit-margin-top="0"
     fit-margin-left="0"
     fit-margin-right="0"
     fit-margin-bottom="0"
     inkscape:window-width="1920"
     inkscape:window-height="1014"
     inkscape:window-x="0"
     inkscape:window-y="28"
     inkscape:window-maximized="1" />
  <metadata
     id="metadata7197">
    <rdf:RDF>
      <cc:Work
         rdf:about="">
        <dc:format>image/svg+xml</dc:format>
        <dc:type
           rdf:resource="http://purl.org/dc/dcmitype/StillImage" />
        <dc:title></dc:title>
      </cc:Work>
    </rdf:RDF>
  </metadata>
  <g
     inkscape:label="Layer 1"
     inkscape:groupmode="layer"
     id="layer1"
     transform="translate(-138.08435,-554.44495)">
    <g
       id="g7276"
       transform="matrix(1.0013588,0,0,1.0013588,-0.1876351,-0.78058098)">
      <path
         id="path7155-3-5"
         d="m 147.81723,554.473 c -5.3936,0.1368 -9.73287,4.55984 -9.73287,9.98595 0,5.51224 4.47392,9.98595 9.98643,9.98595 5.51251,0 9.98643,-4.47371 9.98643,-9.98595 0,-5.51224 -4.47392,-9.98595 -9.98643,-9.98595 -0.0861,0 -0.16795,-0.002 -0.25356,0 z m -0.01,1.71634 c 0.0885,-0.003 0.17415,0 0.26331,0 4.56505,0 8.27001,3.70478 8.27001,8.26961 0,4.56483 -3.70496,8.26961 -8.27001,8.26961 -4.56505,0 -8.27001,-3.70478 -8.27001,-8.26961 0,-4.47567 3.56481,-8.12878 8.0067,-8.26961 z"
         style="fill:#ffffff;fill-opacity:1;fill-rule:nonzero;stroke:none"
         inkscape:connector-curvature="0" />
      <path
         sodipodi:nodetypes="cccccssssccsssssc"
         id="path7157-6-2"
         d="m 143.73786,562.83141 -0.85533,0 1.94072,2.17468 1.94072,-2.17468 -0.70025,0 c 0.1517,-1.06094 1.08505,-1.7433 2.16311,-1.65782 0.0426,0.003 0.0836,0 0.12678,0 1.75618,0 2.4488,1.32809 2.50636,3.28639 0.0601,2.04375 -1.12457,3.3142 -2.50636,3.28639 -1.45845,-0.0288 -2.01104,-0.72632 -2.22354,-1.7846 l -2.60389,0 c 0.42854,2.43758 2.22319,3.86707 4.76891,3.87151 2.88189,0.005 4.96396,-2.40579 4.96396,-5.3733 0,-3.16895 -2.08135,-5.3733 -4.96396,-5.3733 -0.0856,0 -0.16903,-0.005 -0.25356,0 -0.0205,10e-4 -0.0381,-3.4e-4 -0.0585,0 -1.80137,0.0299 -4.24515,1.29185 -4.24516,3.74473 z"
         style="fill:#ffffff;fill-opacity:1;fill-rule:nonzero;stroke:none"
         inkscape:connector-curvature="0" />
    </g>
  </g>
</svg>
