<?xml version="1.0" encoding="UTF-8" standalone="no"?>
<!-- Created with Inkscape (http://www.inkscape.org/) -->

<svg
   xmlns:dc="http://purl.org/dc/elements/1.1/"
   xmlns:cc="http://creativecommons.org/ns#"
   xmlns:rdf="http://www.w3.org/1999/02/22-rdf-syntax-ns#"
   xmlns:svg="http://www.w3.org/2000/svg"
   xmlns="http://www.w3.org/2000/svg"
   xmlns:sodipodi="http://sodipodi.sourceforge.net/DTD/sodipodi-0.dtd"
   xmlns:inkscape="http://www.inkscape.org/namespaces/inkscape"
   width="31.999981"
   height="31.999969"
   id="svg7135"
   version="1.1"
   inkscape:version="0.48.5 r10040"
   sodipodi:docname="social-gpluscomm.svg">
  <defs
     id="defs7137" />
  <sodipodi:namedview
     id="base"
     pagecolor="#282828"
     bordercolor="#464646"
     borderopacity="1"
     inkscape:pageopacity="1"
     inkscape:pageshadow="2"
     inkscape:zoom="1"
     inkscape:cx="-78.21852"
     inkscape:cy="48.191023"
     inkscape:document-units="px"
     inkscape:current-layer="layer1"
     showgrid="false"
     fit-margin-top="0"
     fit-margin-left="0"
     fit-margin-right="0"
     fit-margin-bottom="0"
     inkscape:window-width="1920"
     inkscape:window-height="1014"
     inkscape:window-x="0"
     inkscape:window-y="28"
     inkscape:window-maximized="1" />
  <metadata
     id="metadata7140">
    <rdf:RDF>
      <cc:Work
         rdf:about="">
        <dc:format>image/svg+xml</dc:format>
        <dc:type
           rdf:resource="http://purl.org/dc/dcmitype/StillImage" />
        <dc:title></dc:title>
      </cc:Work>
    </rdf:RDF>
  </metadata>
  <g
     inkscape:label="Layer 1"
     inkscape:groupmode="layer"
     id="layer1"
     transform="translate(-238.07428,-689.21931)">
    <path
       style="fill:#ffffff;fill-opacity:1"
       d="m 254.07427,689.21931 c -8.83444,0 -15.99999,7.16319 -15.99999,15.99999 0,8.83626 7.16555,15.99998 15.99999,15.99998 8.83432,0 15.99999,-7.16386 15.99999,-15.99998 0,-8.8368 -7.16567,-15.99999 -15.99999,-15.99999 z m 3.31247,8.79166 c 0.40193,-0.009 0.80099,0.036 1.12506,0.125 0.25414,0.0763 0.74021,0.33373 1.08334,0.56246 l 0.62492,0.41667 0.68754,-0.22913 c 0.38126,-0.1144 0.89626,-0.28954 1.125,-0.41667 0.21607,-0.1144 0.39587,-0.18393 0.39587,-0.1458 0,0.21607 -0.46027,0.9474 -0.8542,1.35413 -0.53373,0.572 -0.39266,0.63134 0.68752,0.25 0.64808,-0.21606 0.66875,-0.22066 0.54161,0.0207 -0.0762,0.12714 -0.47646,0.57247 -0.8958,0.9792 -0.71166,0.69913 -0.75,0.76947 -0.75,1.35413 0,0.90254 -0.42206,2.78294 -0.8542,3.81253 -0.80053,1.93207 -2.51353,3.93333 -4.22912,4.93747 -2.41454,1.41093 -5.62653,1.76373 -8.33333,0.93753 -0.90227,-0.27967 -2.45833,-0.97707 -2.45833,-1.1042 0,-0.038 0.46981,-0.0914 1.04166,-0.10413 1.19454,-0.0253 2.3792,-0.3528 3.3958,-0.93747 l 0.68753,-0.41666 -0.79166,-0.27087 c -1.11827,-0.38133 -2.12087,-1.25713 -2.375,-2.08333 -0.0763,-0.26694 -0.0447,-0.27087 0.66666,-0.27087 l 0.75,-0.0207 -0.625,-0.29167 c -0.73706,-0.3686 -1.41959,-0.98946 -1.74999,-1.625 -0.24147,-0.45759 -0.54729,-1.61933 -0.45834,-1.70833 0.0254,-0.038 0.2992,0.044 0.6042,0.1458 0.8768,0.3178 0.98747,0.2422 0.47914,-0.2916 -0.95307,-0.96606 -1.24916,-2.4108 -0.79167,-3.77086 l 0.2292,-0.6042 0.83333,0.83333 c 1.71553,1.6652 3.7288,2.6452 6.0416,2.93753 l 0.64586,0.0833 -0.0413,-0.625 c -0.1144,-1.61426 0.89067,-3.09466 2.47912,-3.66666 0.29235,-0.10167 0.68147,-0.15713 1.08334,-0.16667 z"
       id="path3171-7-3-3-8-7-3-4-9-0-8-1-3"
       inkscape:connector-curvature="0" />
  </g>
</svg>
