<?xml version="1.0" encoding="UTF-8" standalone="no"?>
<!-- Created with Inkscape (http://www.inkscape.org/) -->

<svg
   xmlns:dc="http://purl.org/dc/elements/1.1/"
   xmlns:cc="http://creativecommons.org/ns#"
   xmlns:rdf="http://www.w3.org/1999/02/22-rdf-syntax-ns#"
   xmlns:svg="http://www.w3.org/2000/svg"
   xmlns="http://www.w3.org/2000/svg"
   xmlns:sodipodi="http://sodipodi.sourceforge.net/DTD/sodipodi-0.dtd"
   xmlns:inkscape="http://www.inkscape.org/namespaces/inkscape"
   width="31.999969"
   height="31.999969"
   id="svg7135"
   version="1.1"
   inkscape:version="0.48.5 r10040"
   sodipodi:docname="New document 2">
  <defs
     id="defs7137" />
  <sodipodi:namedview
     id="base"
     pagecolor="#282828"
     bordercolor="#ffffff"
     borderopacity="1"
     inkscape:pageopacity="0"
     inkscape:pageshadow="2"
     inkscape:zoom="1.4"
     inkscape:cx="20.656324"
     inkscape:cy="40.285945"
     inkscape:document-units="px"
     inkscape:current-layer="layer1"
     showgrid="false"
     fit-margin-top="0"
     fit-margin-left="0"
     fit-margin-right="0"
     fit-margin-bottom="0"
     inkscape:window-width="1920"
     inkscape:window-height="1014"
     inkscape:window-x="0"
     inkscape:window-y="28"
     inkscape:window-maximized="1" />
  <metadata
     id="metadata7140">
    <rdf:RDF>
      <cc:Work
         rdf:about="">
        <dc:format>image/svg+xml</dc:format>
        <dc:type
           rdf:resource="http://purl.org/dc/dcmitype/StillImage" />
        <dc:title></dc:title>
      </cc:Work>
    </rdf:RDF>
  </metadata>
  <g
     inkscape:label="Layer 1"
     inkscape:groupmode="layer"
     id="layer1"
     transform="translate(-123.09517,-639.21933)">
    <path
       style="fill:#ffffff;fill-opacity:1"
       d="m 79.720206,639.21935 c -8.83444,0 -15.99999,7.16319 -15.99999,15.99999 0,8.83626 7.16555,15.99998 15.99999,15.99998 8.83432,0 15.99999,-7.16386 15.99999,-15.99998 0,-8.8368 -7.16567,-15.99999 -15.99999,-15.99999 z m 3.31246,8.79166 c 0.40193,-0.009 0.801,0.036 1.12507,0.125 0.25413,0.0763 0.7402,0.33373 1.08333,0.56246 l 0.62493,0.41667 0.68754,-0.22913 c 0.38126,-0.1144 0.89626,-0.28954 1.12499,-0.41667 0.21607,-0.1144 0.39587,-0.18393 0.39587,-0.1458 0,0.21607 -0.46027,0.9474 -0.8542,1.35413 -0.53373,0.572 -0.39266,0.63134 0.68753,0.25 0.64807,-0.21606 0.66874,-0.22066 0.5416,0.0207 -0.0762,0.12714 -0.47646,0.57247 -0.8958,0.9792 -0.71166,0.69913 -0.74999,0.76947 -0.74999,1.35413 0,0.90254 -0.42207,2.78294 -0.8542,3.81253 -0.80054,1.93207 -2.51354,3.93333 -4.22913,4.93747 -2.41454,1.41093 -5.62653,1.76373 -8.33333,0.93753 -0.90227,-0.27967 -2.45833,-0.97707 -2.45833,-1.1042 0,-0.038 0.46981,-0.0914 1.04166,-0.10413 1.19454,-0.0253 2.3792,-0.3528 3.3958,-0.93747 l 0.68753,-0.41666 -0.79166,-0.27087 c -1.11827,-0.38133 -2.12087,-1.25713 -2.375,-2.08333 -0.0763,-0.26694 -0.0447,-0.27087 0.66666,-0.27087 l 0.75,-0.0207 -0.625,-0.29167 c -0.73706,-0.3686 -1.41959,-0.98946 -1.74999,-1.625 -0.24147,-0.45759 -0.54729,-1.61933 -0.45834,-1.70833 0.0254,-0.038 0.2992,0.044 0.6042,0.1458 0.8768,0.3178 0.98747,0.2422 0.47914,-0.2916 -0.95307,-0.96606 -1.24916,-2.4108 -0.79167,-3.77086 l 0.2292,-0.6042 0.83333,0.83333 c 1.71553,1.6652 3.7288,2.6452 6.0416,2.93753 l 0.64586,0.0833 -0.0413,-0.625 c -0.1144,-1.61426 0.89067,-3.09466 2.47913,-3.66666 0.29234,-0.10167 0.68147,-0.15713 1.08333,-0.16667 z"
       id="path3171-7-3-3-8-7-3-4-9-0-8-1-3"
       inkscape:connector-curvature="0" />
    <path
       style="fill:#ffffff;fill-opacity:1"
       d="m 139.09515,639.21933 c -8.83446,0 -15.99998,7.16319 -15.99998,15.99999 0,8.83626 7.16552,15.99998 15.99998,15.99998 0.36107,0 0.72827,-0.018 1.08334,-0.0413 l 0,-12.35412 -4.16667,0 0,-4.83333 4.16667,0 0,-3.56253 c 0,-4.13313 2.54293,-6.375 6.22919,-6.375 1.76567,0 3.26613,0.12887 3.70827,0.18754 l 0,4.31246 -2.5416,0 c -2.0046,0 -2.39587,0.95593 -2.39587,2.3542 l 0,3.08333 4.7708,0 -0.62493,4.83333 -4.14587,0 0,11.18746 c 5.81846,-2.39393 9.91666,-8.1088 9.91666,-14.79166 0,-8.83679 -7.16566,-15.99999 -15.99999,-15.99999 z m 1.08334,31.95831 c 0.4454,-0.0293 0.8778,-0.0805 1.31253,-0.14587 -0.42947,0.0647 -0.872,0.11667 -1.31253,0.14587 z m 3.66666,-0.68747 c -0.35753,0.11153 -0.71567,0.20493 -1.08333,0.2916 0.3684,-0.0864 0.72526,-0.1802 1.08333,-0.2916 z m -1.08333,0.2916 c -0.4042,0.0953 -0.8136,0.18633 -1.2292,0.25 0.41573,-0.0633 0.82466,-0.15507 1.2292,-0.25 z"
       id="path3171-7-3-3-8-7-3-4-9-0-8-3-0-8"
       inkscape:connector-curvature="0" />
    <path
       style="fill:#ffffff;fill-opacity:1"
       d="m -36.258839,639.21935 c -8.834433,0 -15.979155,7.16319 -15.979155,15.99999 0,8.83626 7.144722,15.99998 15.979155,15.99998 8.83432,0 15.999988,-7.16386 15.999988,-15.99998 0,-8.8368 -7.165668,-15.99999 -15.999988,-15.99999 z m -1.979165,5.22913 5.520829,0 -1.812499,1.14586 -1.729165,0 c 0.64364,0.5328 1.979165,1.65673 1.979165,3.79167 0,2.07613 -1.178386,3.05359 -2.354165,3.97913 -0.364899,0.36426 -0.791666,0.75633 -0.791666,1.37506 0,0.61607 0.421793,0.9534 0.729166,1.20827 l 1.020833,0.79173 c 1.232792,1.0386 2.354418,1.9982 2.354165,3.93746 0,2.63934 -2.557845,5.29167 -7.374995,5.29167 -4.06227,0 -6.020828,-1.92113 -6.020828,-4 0,-1.01007 0.513733,-2.45433 2.166665,-3.43753 1.735545,-1.067 4.07215,-1.205 5.333329,-1.2916 -0.393787,-0.5052 -0.833333,-1.02627 -0.833333,-1.89586 0,-0.47674 0.13222,-0.76687 0.270833,-1.10414 -0.30864,0.0287 -0.594739,0.0627 -0.874999,0.0627 -2.968084,0 -4.666663,-2.227 -4.666663,-4.41666 0,-1.28987 0.587506,-2.7108 1.791665,-3.75 1.597692,-1.31926 3.777337,-1.68753 5.291663,-1.68753 z m -2.041665,1.06253 c -0.730553,0 -1.509053,0.35447 -1.958332,0.91667 -0.476646,0.59033 -0.604166,1.35133 -0.604166,2.08333 0,1.8802 1.090152,4.99999 3.499997,4.99999 0.699893,0 1.445286,-0.342 1.895832,-0.79166 0.644146,-0.64814 0.708333,-1.53573 0.708333,-2.04167 0,-2.02213 -1.218486,-5.16666 -3.541664,-5.16666 z m 10.291659,5.14586 1.374999,0 0,2.81247 2.833331,0 0,1.3958 -2.833331,0 0,2.83333 -1.374999,0 0,-2.83333 -2.812498,0 0,-1.3958 2.812498,0 0,-2.81247 z m -8.91666,7.37493 c -0.252387,7e-5 -1.761719,0.0627 -2.937498,0.4584 -0.616526,0.2232 -2.416665,0.8818 -2.416665,2.87493 0,1.9938 1.940779,3.43753 4.937496,3.43753 2.689598,0 4.124997,-1.3032 4.124997,-3.04166 0,-1.4356 -0.932159,-2.19187 -3.062498,-3.70833 -0.222993,-0.028 -0.365826,-0.0207 -0.645832,-0.0207 z"
       id="path3171-7-3-3-8-7-3-4-9-0-8-30-0"
       inkscape:connector-curvature="0" />
    <path
       style="fill:#ffffff;fill-opacity:1"
       d="m 21.741119,639.21935 c -8.834434,0 -15.9999886,7.16319 -15.9999886,15.99999 0,8.83626 7.1655546,15.99998 15.9999886,15.99998 2.551164,0 4.966156,-0.60406 7.104161,-1.66666 0.935566,1.01813 2.279345,1.66666 3.770831,1.66666 2.827004,0 5.104163,-2.29733 5.104163,-5.12499 l -0.104167,-1.04167 c -0.224966,-1.08606 -0.789913,-2.0224 -1.562499,-2.72913 1.060919,-2.14106 1.666666,-4.55166 1.666666,-7.10419 0,-8.8368 -7.144835,-15.99999 -15.979155,-15.99999 z m -1.979166,5.22913 5.52083,0 -1.833332,1.14586 -1.729166,0 c 0.64364,0.5328 1.979166,1.65673 1.979166,3.79167 0,2.07613 -1.178386,3.05373 -2.354165,3.97913 -0.3649,0.36426 -0.770833,0.75633 -0.770833,1.37506 0,0.61594 0.421793,0.95354 0.729166,1.20827 l 0.999999,0.79173 c 1.232793,1.03847 2.354419,1.9982 2.354165,3.93746 0,2.63934 -2.557845,5.29167 -7.374994,5.29167 -4.062271,0 -6.020829,-1.92113 -6.020829,-4 0,-1.01007 0.513733,-2.45433 2.166665,-3.43753 1.735545,-1.06687 4.092983,-1.20513 5.354162,-1.2916 -0.393786,-0.5052 -0.854166,-1.02627 -0.854166,-1.89586 0,-0.47674 0.153054,-0.767 0.291667,-1.10414 -0.30864,0.0287 -0.615573,0.0627 -0.895833,0.0627 -2.968084,0 -4.64583,-2.227 -4.64583,-4.41666 0,-1.28987 0.587507,-2.7108 1.791666,-3.75 1.597692,-1.31926 3.777337,-1.68753 5.291662,-1.68753 z m -2.041665,1.06253 c -0.730553,0 -1.509052,0.35447 -1.958332,0.91667 -0.476646,0.59033 -0.624999,1.35133 -0.624999,2.08333 0,1.8802 1.090152,4.99999 3.499997,4.99999 0.699893,0 1.445286,-0.342 1.895832,-0.79166 0.644146,-0.64814 0.708333,-1.53573 0.708333,-2.04167 0,-2.02213 -1.197652,-5.16666 -3.520831,-5.16666 z m 10.270826,5.14586 1.395832,0 0,2.81247 2.812498,0 0,1.3958 -2.812498,0 0,2.83333 -1.395832,0 0,-2.83333 -2.791665,0 0,-1.3958 2.791665,0 0,-2.81247 z m -8.895827,7.37493 c -0.252386,0 -1.782552,0.0627 -2.958331,0.4584 -0.616526,0.22307 -2.395831,0.88193 -2.395831,2.87493 0,1.9938 1.919945,3.43753 4.916663,3.43753 2.689598,0 4.124997,-1.3032 4.124997,-3.04166 0,-1.4356 -0.93216,-2.19187 -3.062498,-3.70833 -0.222993,-0.028 -0.344993,-0.0207 -0.625,-0.0207 z m 13.520824,4.16666 c 0.08173,0 0.150806,-0.014 0.229166,0 0.548453,0.0971 1.008926,0.52274 1.124999,1.08334 l 0,0.29173 c 0,0.7622 -0.592146,1.3958 -1.354165,1.3958 -0.762173,0 -1.395833,-0.6336 -1.395833,-1.3958 0,-0.76227 0.63366,-1.37507 1.395833,-1.37507 z m -2.541665,2.54174 c 0.762073,-7e-5 1.374999,0.61273 1.374999,1.37493 0,0.76226 -0.612926,1.37506 -1.374999,1.37506 -0.762073,0 -1.374999,-0.6128 -1.374999,-1.37506 l 0.0208,-0.2916 c 0.132746,-0.64074 0.700013,-1.08333 1.354166,-1.08333 z m 5.062496,0 c 0.654153,0 1.221419,0.44259 1.354166,1.08333 l 0.04167,0.2916 c 0,0.76226 -0.63376,1.37506 -1.395833,1.37506 -0.762073,0 -1.374999,-0.6128 -1.374999,-1.37506 0,-0.7622 0.612926,-1.37493 1.374999,-1.37493 z m -0.708333,3.18746 1.645833,0 c -0.576,1.09327 -1.664493,1.88666 -2.937498,2.06253 l 0,-0.77086 c 0,-0.71527 0.576479,-1.29167 1.291665,-1.29167 z m -5.270829,0.0413 1.624999,0 c 0.715086,0 1.291665,0.5764 1.291665,1.29167 l 0,0.72919 c -1.265199,-0.17139 -2.335125,-0.94099 -2.916664,-2.02086 z"
       id="path3171-7-3-3-8-7-3-4-9-0-8-30-4-9"
       inkscape:connector-curvature="0" />
  </g>
</svg>
