<?xml version="1.0" encoding="UTF-8" standalone="no"?>
<!-- Created with Inkscape (http://www.inkscape.org/) -->

<svg
   xmlns:dc="http://purl.org/dc/elements/1.1/"
   xmlns:cc="http://creativecommons.org/ns#"
   xmlns:rdf="http://www.w3.org/1999/02/22-rdf-syntax-ns#"
   xmlns:svg="http://www.w3.org/2000/svg"
   xmlns="http://www.w3.org/2000/svg"
   xmlns:sodipodi="http://sodipodi.sourceforge.net/DTD/sodipodi-0.dtd"
   xmlns:inkscape="http://www.inkscape.org/namespaces/inkscape"
   width="1280"
   height="720"
   id="svg2"
   version="1.1"
   inkscape:version="0.91 r13725"
   sodipodi:docname="ubuntu-gnome-plymouth-plain.svg">
  <defs
     id="defs4">
    <filter
       inkscape:collect="always"
       id="filter4312"
       x="-0.017759999"
       width="1.03552"
       y="-0.12826668"
       height="1.2565333"
       color-interpolation-filters="sRGB">
      <feGaussianBlur
         inkscape:collect="always"
         stdDeviation="1.924"
         id="feGaussianBlur4314" />
    </filter>
  </defs>
  <sodipodi:namedview
     id="base"
     pagecolor="#ffffff"
     bordercolor="#666666"
     borderopacity="1.0"
     inkscape:pageopacity="0.0"
     inkscape:pageshadow="2"
     inkscape:zoom="0.70710678"
     inkscape:cx="859.9427"
     inkscape:cy="420.11321"
     inkscape:document-units="px"
     inkscape:current-layer="layer1"
     showgrid="false"
     fit-margin-top="0"
     fit-margin-left="0"
     fit-margin-right="0"
     fit-margin-bottom="0"
     inkscape:window-width="1280"
     inkscape:window-height="745"
     inkscape:window-x="0"
     inkscape:window-y="27"
     inkscape:window-maximized="1"
     showguides="false"
     inkscape:guide-bbox="true"
     inkscape:snap-global="true"
     inkscape:snap-bbox="true"
     inkscape:bbox-nodes="true">
    <sodipodi:guide
       orientation="1,0"
       position="590,435.5"
       id="guide4854" />
    <sodipodi:guide
       orientation="1,0"
       position="604.00002,295.5"
       id="guide4856" />
    <sodipodi:guide
       orientation="1,0"
       position="676.00002,295.5"
       id="guide4858" />
    <sodipodi:guide
       orientation="1,0"
       position="690,435.5"
       id="guide4871" />
    <sodipodi:guide
       orientation="0,1"
       position="590,435.5"
       id="guide4975" />
    <sodipodi:guide
       orientation="0,1"
       position="604.00002,284.5"
       id="guide4977" />
    <sodipodi:guide
       orientation="0,1"
       position="604.00002,300.5"
       id="guide4990" />
    <sodipodi:guide
       orientation="0,1"
       position="590,335.5"
       id="guide3224" />
  </sodipodi:namedview>
  <metadata
     id="metadata7">
    <rdf:RDF>
      <cc:Work
         rdf:about="">
        <dc:format>image/svg+xml</dc:format>
        <dc:type
           rdf:resource="http://purl.org/dc/dcmitype/StillImage" />
        <dc:title></dc:title>
      </cc:Work>
    </rdf:RDF>
  </metadata>
  <g
     inkscape:label="Capa 1"
     inkscape:groupmode="layer"
     id="layer1"
     transform="translate(317.14285,689.70929)">
    <rect
       style="fill:#2d3335;fill-opacity:1;stroke:none"
       id="rect3178"
       width="1280"
       height="720"
       x="-317.14285"
       y="-689.70929" />
    <g
       id="g3332">
      <g
         transform="translate(-78.999997,-353.5)"
         id="g3282">
        <rect
           y="80.79071"
           x="419.35715"
           height="21"
           width="21"
           id="rect3280"
           style="color:#000000;fill:none;stroke:none;stroke-width:1;marker:none;visibility:visible;display:inline;overflow:visible;enable-background:accumulate" />
        <path
           transform="matrix(0.38709677,0,0,0.38709677,354.95392,-36.64477)"
           d="M 209,330.5 A 15.5,15.5 0 0 1 193.5,346 15.5,15.5 0 0 1 178,330.5 15.5,15.5 0 0 1 193.5,315 15.5,15.5 0 0 1 209,330.5 Z"
           sodipodi:ry="15.5"
           sodipodi:rx="15.5"
           sodipodi:cy="330.5"
           sodipodi:cx="193.5"
           id="path3233-2"
           style="fill:#ffffff;fill-opacity:1;stroke:none"
           sodipodi:type="arc" />
      </g>
      <g
         transform="translate(-78.999997,-353.5)"
         id="g3286">
        <rect
           style="color:#000000;fill:none;stroke:none;stroke-width:1;marker:none;visibility:visible;display:inline;overflow:visible;enable-background:accumulate"
           id="rect3276"
           width="21"
           height="21"
           x="391.35715"
           y="80.79071" />
        <path
           transform="matrix(0.38709677,0,0,0.38709677,326.95392,-36.64477)"
           d="M 209,330.5 A 15.5,15.5 0 0 1 193.5,346 15.5,15.5 0 0 1 178,330.5 15.5,15.5 0 0 1 193.5,315 15.5,15.5 0 0 1 209,330.5 Z"
           sodipodi:ry="15.5"
           sodipodi:rx="15.5"
           sodipodi:cy="330.5"
           sodipodi:cx="193.5"
           id="path3235-0"
           style="fill:#979a9b;fill-opacity:1;stroke:none"
           sodipodi:type="arc" />
      </g>
      <g
         id="g3323"
         transform="translate(-107,-353.5)">
        <rect
           y="80.79071"
           x="391.35715"
           height="21"
           width="21"
           id="rect3325"
           style="color:#000000;fill:none;stroke:none;stroke-width:1;marker:none;visibility:visible;display:inline;overflow:visible;enable-background:accumulate" />
        <path
           sodipodi:type="arc"
           style="fill:#979a9b;fill-opacity:1;stroke:none"
           id="path3327"
           sodipodi:cx="193.5"
           sodipodi:cy="330.5"
           sodipodi:rx="15.5"
           sodipodi:ry="15.5"
           d="M 209,330.5 A 15.5,15.5 0 0 1 193.5,346 15.5,15.5 0 0 1 178,330.5 15.5,15.5 0 0 1 193.5,315 15.5,15.5 0 0 1 209,330.5 Z"
           transform="matrix(0.38709677,0,0,0.38709677,326.95392,-36.64477)" />
      </g>
    </g>
    <path
       style="fill:#ffffff;fill-opacity:1"
       d="m 322.85715,-405.20929 c -27.6144,0 -50,22.38491 -50,50 0,27.61337 22.3856,50 50,50 27.61405,0 50,-22.38698 50,-50 0,-27.61509 -22.38595,-50 -50,-50 z m 21.24023,16.89453 c 13.77737,0 -0.84464,19.60449 -8.59375,19.60449 -7.75022,0 -5.18306,-19.60449 8.59375,-19.60449 z m -21.26464,2.39258 c 6.78174,0.0234 2.38626,15.03904 -1.61133,14.79492 -4.12823,-0.252 -6.84971,-13.73979 0.90332,-14.74609 0.24237,-0.0315 0.48924,-0.0496 0.70801,-0.0488 z m -13.23243,5.32227 c 4.61235,0.25004 4.17402,12.14604 1.00098,12.79296 -3.49096,0.71343 -8.79501,-9.90411 -2.56348,-12.47558 0.3894,-0.16068 0.75864,-0.25689 1.09864,-0.29297 0.15936,-0.0169 0.31507,-0.0325 0.46386,-0.0245 z m -10.18066,8.32519 c 3.81952,0.0634 5.48191,9.94979 2.90527,11.08398 -2.93489,1.29133 -9.60262,-7.02689 -4.61425,-10.47363 0.46786,-0.32308 0.9202,-0.52295 1.34277,-0.58594 0.12765,-0.019 0.243,-0.0265 0.36621,-0.0245 z m 28.51562,6.37207 c 6.41665,0.10856 11.6094,2.2162 12.30469,6.34766 2.23379,13.27286 -31.65692,18.11677 -18.89648,27.83203 4.00839,3.05194 8.11502,0.73024 7.49512,-4.00391 -0.51743,-3.94961 13.87196,-6.33514 12.74414,-0.36621 -1.47668,7.82753 -9.36789,13.98926 -16.21094,13.98926 -13.91009,0 -27.23941,-16.17249 -24.63379,-27.83203 2.40585,-10.7742 16.50287,-16.14772 27.19726,-15.9668 z"
       id="path3171-7-3-3-8-7-3"
       inkscape:connector-curvature="0"
       inkscape:export-xdpi="90"
       inkscape:export-ydpi="90"
       inkscape:export-filename="/home/aldomann/Dropbox/Ubuntu GNOME/Artwork/plymouth/path3171-7-3-3-8-7-2.png" />
    <g
       id="g4446"
       transform="translate(8.5,6.5)">
      <rect
         inkscape:export-ydpi="90"
         inkscape:export-xdpi="90"
         inkscape:export-filename="/home/aldomann/Dropbox/Ubuntu GNOME/Artwork/plymouth/g4320.png"
         y="-773.70929"
         x="179.85715"
         height="46"
         width="269"
         id="rect4324"
         style="color:#000000;fill:none;stroke:none;stroke-width:1;marker:none;visibility:visible;display:inline;overflow:visible;enable-background:accumulate" />
      <g
         inkscape:export-ydpi="90"
         inkscape:export-xdpi="90"
         transform="translate(14.563319,-107.01094)"
         id="g4320">
        <rect
           ry="5.5"
           rx="5.5"
           y="-661.69836"
           x="170.49054"
           height="36"
           width="258"
           id="rect4231"
           style="color:#000000;fill:#000000;fill-opacity:1;fill-rule:nonzero;stroke:none;stroke-width:1.5;marker:none;visibility:visible;display:inline;overflow:visible;filter:url(#filter4312);enable-background:accumulate" />
        <rect
           style="color:#000000;fill:#1b1e20;fill-opacity:1;fill-rule:nonzero;stroke:#ffffff;stroke-width:1;stroke-miterlimit:4;stroke-opacity:1;stroke-dasharray:none;marker:none;visibility:visible;display:inline;overflow:visible;enable-background:accumulate"
           id="rect4229"
           width="258"
           height="36"
           x="170.49054"
           y="-663.69836"
           rx="6"
           ry="6" />
      </g>
    </g>
  </g>
</svg>
