<?xml version="1.0" encoding="UTF-8" standalone="no"?>
<svg
   xmlns:dc="http://purl.org/dc/elements/1.1/"
   xmlns:cc="http://creativecommons.org/ns#"
   xmlns:rdf="http://www.w3.org/1999/02/22-rdf-syntax-ns#"
   xmlns:svg="http://www.w3.org/2000/svg"
   xmlns="http://www.w3.org/2000/svg"
   version="1.1"
   id="svg2"
   height="720"
   width="1280">
  <defs
     id="defs4">
    <filter
       color-interpolation-filters="sRGB"
       height="1.2565333"
       y="-0.12826668"
       width="1.03552"
       x="-0.017759999"
       id="filter4312">
      <feGaussianBlur
         id="feGaussianBlur4314"
         stdDeviation="1.924" />
    </filter>
  </defs>
  <metadata
     id="metadata7">
    <rdf:RDF>
      <cc:Work
         rdf:about="">
        <dc:format>image/svg+xml</dc:format>
        <dc:type
           rdf:resource="http://purl.org/dc/dcmitype/StillImage" />
        <dc:title></dc:title>
      </cc:Work>
    </rdf:RDF>
  </metadata>
  <g
     transform="translate(317.14285,689.70929)"
     id="layer1">
    <rect
       y="-689.70929"
       x="-317.14285"
       height="720"
       width="1280"
       id="rect3178"
       style="fill:#2d3335;fill-opacity:1;stroke:none" />
    <g
       id="g3332">
      <g
         id="g3282"
         transform="translate(-78.999997,-353.5)">
        <rect
           style="color:#000000;fill:none;stroke:none;stroke-width:1;marker:none;visibility:visible;display:inline;overflow:visible;enable-background:accumulate"
           id="rect3280"
           width="21"
           height="21"
           x="419.35715"
           y="80.79071" />
        <path
           style="fill:#ffffff;fill-opacity:1;stroke:none"
           id="path3233-2"
           d="M 209,330.5 A 15.5,15.5 0 0 1 193.5,346 15.5,15.5 0 0 1 178,330.5 15.5,15.5 0 0 1 193.5,315 15.5,15.5 0 0 1 209,330.5 Z"
           transform="matrix(0.38709677,0,0,0.38709677,354.95392,-36.64477)" />
      </g>
      <g
         id="g3286"
         transform="translate(-78.999997,-353.5)">
        <rect
           y="80.79071"
           x="391.35715"
           height="21"
           width="21"
           id="rect3276"
           style="color:#000000;fill:none;stroke:none;stroke-width:1;marker:none;visibility:visible;display:inline;overflow:visible;enable-background:accumulate" />
        <path
           style="fill:#979a9b;fill-opacity:1;stroke:none"
           id="path3235-0"
           d="M 209,330.5 A 15.5,15.5 0 0 1 193.5,346 15.5,15.5 0 0 1 178,330.5 15.5,15.5 0 0 1 193.5,315 15.5,15.5 0 0 1 209,330.5 Z"
           transform="matrix(0.38709677,0,0,0.38709677,326.95392,-36.64477)" />
      </g>
      <g
         transform="translate(-107,-353.5)"
         id="g3323">
        <rect
           style="color:#000000;fill:none;stroke:none;stroke-width:1;marker:none;visibility:visible;display:inline;overflow:visible;enable-background:accumulate"
           id="rect3325"
           width="21"
           height="21"
           x="391.35715"
           y="80.79071" />
        <path
           transform="matrix(0.38709677,0,0,0.38709677,326.95392,-36.64477)"
           d="M 209,330.5 A 15.5,15.5 0 0 1 193.5,346 15.5,15.5 0 0 1 178,330.5 15.5,15.5 0 0 1 193.5,315 15.5,15.5 0 0 1 209,330.5 Z"
           id="path3327"
           style="fill:#979a9b;fill-opacity:1;stroke:none" />
      </g>
    </g>
    <path
       id="path3171-7-3-3-8-7-3"
       d="m 322.85715,-405.20929 c -27.6144,0 -50,22.38491 -50,50 0,27.61337 22.3856,50 50,50 27.61405,0 50,-22.38698 50,-50 0,-27.61509 -22.38595,-50 -50,-50 z m 21.24023,16.89453 c 13.77737,0 -0.84464,19.60449 -8.59375,19.60449 -7.75022,0 -5.18306,-19.60449 8.59375,-19.60449 z m -21.26464,2.39258 c 6.78174,0.0234 2.38626,15.03904 -1.61133,14.79492 -4.12823,-0.252 -6.84971,-13.73979 0.90332,-14.74609 0.24237,-0.0315 0.48924,-0.0496 0.70801,-0.0488 z m -13.23243,5.32227 c 4.61235,0.25004 4.17402,12.14604 1.00098,12.79296 -3.49096,0.71343 -8.79501,-9.90411 -2.56348,-12.47558 0.3894,-0.16068 0.75864,-0.25689 1.09864,-0.29297 0.15936,-0.0169 0.31507,-0.0325 0.46386,-0.0245 z m -10.18066,8.32519 c 3.81952,0.0634 5.48191,9.94979 2.90527,11.08398 -2.93489,1.29133 -9.60262,-7.02689 -4.61425,-10.47363 0.46786,-0.32308 0.9202,-0.52295 1.34277,-0.58594 0.12765,-0.019 0.243,-0.0265 0.36621,-0.0245 z m 28.51562,6.37207 c 6.41665,0.10856 11.6094,2.2162 12.30469,6.34766 2.23379,13.27286 -31.65692,18.11677 -18.89648,27.83203 4.00839,3.05194 8.11502,0.73024 7.49512,-4.00391 -0.51743,-3.94961 13.87196,-6.33514 12.74414,-0.36621 -1.47668,7.82753 -9.36789,13.98926 -16.21094,13.98926 -13.91009,0 -27.23941,-16.17249 -24.63379,-27.83203 2.40585,-10.7742 16.50287,-16.14772 27.19726,-15.9668 z"
       style="fill:#ffffff;fill-opacity:1" />
    <g
       transform="translate(8.5,6.5)"
       id="g4446">
      <rect
         style="color:#000000;fill:none;stroke:none;stroke-width:1;marker:none;visibility:visible;display:inline;overflow:visible;enable-background:accumulate"
         id="rect4324"
         width="269"
         height="46"
         x="179.85715"
         y="-773.70929" />
      <g
         id="g4320"
         transform="translate(14.563319,-107.01094)">
        <rect
           style="color:#000000;fill:#000000;fill-opacity:1;fill-rule:nonzero;stroke:none;stroke-width:1.5;marker:none;visibility:visible;display:inline;overflow:visible;filter:url(#filter4312);enable-background:accumulate"
           id="rect4231"
           width="258"
           height="36"
           x="170.49054"
           y="-661.69836"
           rx="5.5"
           ry="5.5" />
        <rect
           ry="6"
           rx="6"
           y="-663.69836"
           x="170.49054"
           height="36"
           width="258"
           id="rect4229"
           style="color:#000000;fill:#1b1e20;fill-opacity:1;fill-rule:nonzero;stroke:#ffffff;stroke-width:1;stroke-miterlimit:4;stroke-opacity:1;stroke-dasharray:none;marker:none;visibility:visible;display:inline;overflow:visible;enable-background:accumulate" />
      </g>
    </g>
  </g>
</svg>
